<?xml version="1.0" encoding="UTF-8"?>
<svg width="59.856mm" height="44.892mm" fill="#000000" version="1.1" viewBox="0 0 135.74 101.8" xmlns="http://www.w3.org/2000/svg" xmlns:cc="http://creativecommons.org/ns#" xmlns:dc="http://purl.org/dc/elements/1.1/" xmlns:rdf="http://www.w3.org/1999/02/22-rdf-syntax-ns#">
 <metadata>
  <rdf:RDF>
   <cc:Work rdf:about="">
    <dc:format>image/svg+xml</dc:format>
    <dc:type rdf:resource="http://purl.org/dc/dcmitype/StillImage"/>
    <dc:title>Robots - Solid - 002 - Wall E</dc:title>
   </cc:Work>
  </rdf:RDF>
 </metadata>
 <title>Robots - Solid - 002 - Wall E</title>
 <g transform="translate(16.624 16.886)" display="none">
  <g transform="matrix(.72642 0 0 .72642 13.145 9.5033)" display="inline" fill="#ccc">
   <rect x="-40.98" y="-36.327" width="186.86" height="140.14" fill="#ccc"/>
  </g>
 </g>
 <g transform="translate(15.42 17.157)">
  <g transform="matrix(1.25 0 0 1.25 14.948 -3.7583)" fill="#000" stroke-width=".8">
   <g fill="#000" stroke-width=".8">
    <path d="m59 3a1 1 0 0 0-1 1v3h-2.13a3.93 3.93 0 0 0-2.41-2.71 3.57 3.57 0 0 0-0.46-0.16v-2.13h3a1 1 0 0 0 0-2h-3a2 2 0 0 0-2 2v2.13a3.91 3.91 0 0 0-2.56 2 4 4 0 0 0 0.49 4.38 5.49 5.49 0 0 1-5.4 4.49 4.57 4.57 0 0 1-0.53 0v-2a13 13 0 0 0-26 0v4a4.79 4.79 0 0 0-0.53 0 11.54 11.54 0 0 0-11.47 10.33 3.8 3.8 0 0 0-0.87 1.67h-2.13a2 2 0 0 0-2 2v3a1 1 0 0 0 2 0v-3h2.13a3.93 3.93 0 0 0 2.41 2.71 3.58 3.58 0 0 0 0.46 0.16v2.13h-3a1 1 0 0 0 0 2h3a2 2 0 0 0 2-2v-2.13a3.91 3.91 0 0 0 2.56-2 4 4 0 0 0-0.49-4.38 5.49 5.49 0 0 1 5.4-4.49 4.59 4.59 0 0 1 0.53 0v20a8.5037 8.5037 0 0 0 0.5 17h25a8.5037 8.5037 0 0 0 0.5-17v-22a4.6 4.6 0 0 0 0.53 0 11.54 11.54 0 0 0 11.47-10.33 3.8 3.8 0 0 0 0.87-1.67h2.13a2 2 0 0 0 2-2v-3a1 1 0 0 0-1-1zm-49.22 27.91a2 2 0 0 1-1.68 1.09h-0.1a1.63 1.63 0 0 1-0.67-0.15 2 2 0 0 1-0.58-3.36 2.49 2.49 0 0 1 0.43-0.29 2.67 2.67 0 0 1 0.36-0.14h0.11a1.85 1.85 0 0 1 0.74 0l0.27 0.07a1.93 1.93 0 0 1 0.7 0.42l0.11 0.09a2 2 0 0 1 0.34 2.29zm40.44-23.82a2 2 0 0 1 1.69-1.09h0.09a1.63 1.63 0 0 1 0.63 0.16 2 2 0 0 1 0.58 3.36 2.31 2.31 0 0 1-0.71 0.41h-0.19a1.85 1.85 0 0 1-0.74 0l-0.27-0.07a1.93 1.93 0 0 1-0.7-0.42h-0.08a2 2 0 0 1-0.34-2.29zm-7.72 48.91h-25a4.5 4.5 0 0 1 0-9h25a4.5 4.5 0 0 1 0 9zm-17.5-22a5 5 0 0 1 4-4.9v-2.2a5 5 0 0 1 0-9.8v-4.1a1 1 0 0 1 2 0v4.1a5 5 0 0 1 0 9.8v2.2a5 5 0 0 1 0 9.8v4.1h-2v-4.1a5 5 0 0 1-4-4.9z"/>
    <circle cx="30" cy="34" r="3"/>
    <circle cx="30" cy="22" r="3"/>
    <path d="m21.24 49a4.49 4.49 0 0 1 0 5h17.52a4.49 4.49 0 0 1 0-5z"/>
    <path d="m17.5 49a2.46 2.46 0 0 0-0.72 0.11l-0.23 0.08a2.3 2.3 0 0 0-0.64 0.38l-0.34 0.34a2.31 2.31 0 0 0-0.38 0.64 2.1 2.1 0 0 0-0.08 0.23 2.46 2.46 0 0 0-0.11 0.72 2.5 2.5 0 1 0 2.5-2.5z"/>
    <path d="m42.5 49a2.5 2.5 0 0 0 0 5 2.46 2.46 0 0 0 0.72-0.11l0.23-0.08a2.31 2.31 0 0 0 0.64-0.38 2.73 2.73 0 0 0 0.34-0.34 2.31 2.31 0 0 0 0.38-0.64 2.09 2.09 0 0 0 0.08-0.23 2.46 2.46 0 0 0 0.11-0.72 2.5 2.5 0 0 0-2.5-2.5z"/>
   </g>
  </g>
 </g>
</svg>
