<?xml version="1.0" encoding="UTF-8"?>
<svg width="59.856mm" height="44.892mm" fill="#000000" version="1.1" viewBox="0 0 135.74 101.8" xmlns="http://www.w3.org/2000/svg" xmlns:cc="http://creativecommons.org/ns#" xmlns:dc="http://purl.org/dc/elements/1.1/" xmlns:rdf="http://www.w3.org/1999/02/22-rdf-syntax-ns#">
 <metadata>
  <rdf:RDF>
   <cc:Work rdf:about="">
    <dc:format>image/svg+xml</dc:format>
    <dc:type rdf:resource="http://purl.org/dc/dcmitype/StillImage"/>
    <dc:title>Robots - Solid - 002 - Wall E</dc:title>
   </cc:Work>
  </rdf:RDF>
 </metadata>
 <title>Robots - Solid - 002 - Wall E</title>
 <g transform="translate(16.624 16.886)" display="none">
  <g transform="matrix(.72642 0 0 .72642 13.145 9.5033)" display="inline" fill="#ccc">
   <rect x="-40.98" y="-36.327" width="186.86" height="140.14" fill="#ccc"/>
  </g>
 </g>
 <g transform="translate(15.42 17.157)">
  <g transform="matrix(.22797 0 0 .22797 340.65 -245.04)" stroke-width=".97288">
   <path transform="matrix(2.7053 0 0 2.7053 -72.557 -497.31)" d="m102.79 218.47a1.512 1.512 0 0 0-1.2852 0.71679l-1.8887 3.0488a1.512 1.512 0 0 0-0.04687 1.5059l5.8965 11.088h-0.16017a1.512 1.512 0 0 0-1.5117 1.5117v2.5117c-4.1647 1.2396-8.4178 3.3048-12.557 5.8125v-5.1602c0-2.5388-2.1021-4.6289-4.6543-4.6289-2.5522 0-4.6543 2.0902-4.6543 4.6289v11.602c-0.72613 0.55406-1.4678 1.1017-2.1719 1.6621-4.8614 3.8694-9.1526 7.8401-12.336 11.084-1.5917 1.6219-2.9054 3.0601-3.8848 4.2305-0.97933 1.1703-1.5909 1.8684-1.9785 2.8633-0.43172 1.1082-0.47752 2.2669-0.45508 3.4629 0.02244 1.196 0.15952 2.3732 0.38476 3.334 0.59456 2.5362 2.7617 5.2731 5.9375 8.7461 3.1758 3.473 7.394 7.4055 12.109 11.133 3.6741 2.9042 7.6278 5.696 11.641 8.0293v-8.877a1.512 1.512 0 0 1 1.5117-1.5117 1.512 1.512 0 0 1 0.78906 0.22071c3.2783 2.0024 6.5339 3.6777 9.3535 4.8359 2.8196 1.1583 5.2515 1.7695 6.5918 1.7695 8.2913 0 17.078-1.0446 25.484-2.5645a1.512 1.512 0 0 1 1.7793 1.5508l-0.33789 8.1211c9.1276-1.6227 17.786-3.7807 25.041-5.8438v6.0918c0 2.5388 2.1021 4.6289 4.6543 4.6289s4.6543-2.0902 4.6543-4.6289v-8.9258c6.6169-2.1248 10.863-3.7344 10.863-3.7344a1.701 1.701 0 0 0 1.0723-1.3359s0.14223-1.205 0.31054-2.9824h2.1602a1.512 1.512 0 0 0 1.5117-1.5117v-0.58008l20.318 7.5606a1.512 1.512 0 0 0 1.4297-0.20312l3.6016-2.6797a1.512 1.512 0 0 0 0.60937-1.2129v-39.842a1.512 1.512 0 0 0-0.67187-1.2578l-3.6016-2.4102a1.512 1.512 0 0 0-0.82813-0.25391 1.512 1.512 0 0 0-0.56055 0.10157l-20.297 7.9004v-0.54297a1.512 1.512 0 0 0-1.5117-1.5117h-2.2266c-0.18624-1.7349-0.34375-2.9336-0.34375-2.9336a1.701 1.701 0 0 0-1.1172-1.332s-4.2898-1.4918-10.963-3.4844v-8.7676c0-2.5388-2.104-4.6289-4.6562-4.6289s-4.6543 2.0902-4.6543 4.6289v6.1309c-4.4509-1.1952-9.4237-2.4152-14.611-3.5449v-5.75a1.512 1.512 0 0 0-1.2598-1.4902l5.1894-11.1a1.512 1.512 0 0 0-0.125-1.5l-2.1621-3.1289a1.512 1.512 0 0 0-1.2441-0.65234zm0.8418 3.0234h42.504l1.2188 1.7617-5.4102 11.574h-33.055l-6.2441-11.74zm-17.049 16.398c0.92514 0 1.6211 0.69302 1.6211 1.6133v4.3281h-3.2441v-4.3281c0-0.92026 0.6979-1.6133 1.623-1.6133zm79.213 0c0.92514 0 1.623 0.69303 1.623 1.6133v4.3301h-3.2442v-4.3301c0-0.92025 0.69597-1.6133 1.6211-1.6133zm41.477 15.389 2.2754 1.5234v38.275l-2.332 1.7344-20.602-7.666v-25.824zm-111.43 8.9707a9.9199 9.9199 0 0 1 9.9199 9.9199 9.9199 9.9199 0 0 1-9.9199 9.9199 9.9199 9.9199 0 0 1-9.9199-9.9199 9.9199 9.9199 0 0 1 9.9199-9.9199zm-1.5918 4.8652a5.0545 5.0545 0 0 0-5.0547 5.0547 5.0545 5.0545 0 0 0 5.0547 5.0527 5.0545 5.0545 0 0 0 5.0547-5.0527 5.0545 5.0545 0 0 0-5.0547-5.0547zm23.627 4.7461h50.822a1.5118 1.5118 0 0 1 1.5137 1.5117 1.5118 1.5118 0 0 1-1.5137 1.5117h-50.822a1.5118 1.5118 0 0 1-1.5117-1.5117 1.5118 1.5118 0 0 1 1.5117-1.5117zm-23.68 27.5v7.9492c5.3025 2.7352 10.611 4.5176 15.424 4.5176 7.769 0 15.85-0.83657 23.676-2.1055l0.28711-6.9551c-7.9732 1.367-16.231 2.3457-24.166 2.3457-2.1372 0-4.7316-0.76405-7.7402-2-2.3215-0.95367-4.8812-2.2757-7.4805-3.752zm70.221 5.7539h3.2441v4.3281c0 0.92025-0.69792 1.6152-1.623 1.6152s-1.6211-0.69498-1.6211-1.6152z" color="#000000" color-rendering="auto" dominant-baseline="auto" fill="#000" image-rendering="auto" shape-rendering="auto" solid-color="#000000" stop-color="#000000" style="font-feature-settings:normal;font-variant-alternates:normal;font-variant-caps:normal;font-variant-east-asian:normal;font-variant-ligatures:normal;font-variant-numeric:normal;font-variant-position:normal;font-variation-settings:normal;inline-size:0;isolation:auto;mix-blend-mode:normal;shape-margin:0;shape-padding:0;text-decoration-color:#000000;text-decoration-line:none;text-decoration-style:solid;text-indent:0;text-orientation:mixed;text-transform:none;white-space:normal"/>
  </g>
  <g fill="#000">
   <g stroke-width=".8">
    <g transform="matrix(1.5 0 0 1.5 150.6 -306.19)">
     <g fill="#000" stroke-width=".8">
      <path d="m42.9 16.2h-1.3v-3.7h-0.2c-1.1 0-2-0.8-2-1.9v-4.2h-1.6v4.3c0 1-0.9 1.9-2 1.9v3.7h-21.5v-3.7c-0.1 0-2.2 0.1-2.2-1.9v-4.3h-1.6v4.3c0 1-0.9 1.9-2 1.9v3.7h-1.4c-1.5 0-2.8 1.2-2.8 2.8 0 1.5 1.2 2.8 2.8 2.8h6.4l-5.4 20.1c-0.2 0.6 0.1 1.3 0.7 1.5s1.3-0.1 1.5-0.7l5.6-21 2.4 5.6h3.8v2.3h-4.1c-1.1 0-2 0.9-2 2v6.9c0 1.1 0.9 2 2 2h14c1.1 0 2-0.9 2-2v-6.9c0-1.1-0.9-2-2-2h-4.1v-2.3h3.8l2.4-5.6 5.6 21c0.2 0.6 0.9 0.9 1.5 0.7s0.9-0.9 0.7-1.5l-5.4-20.3h6.4c1.5 0 2.8-1.2 2.8-2.8 0-1.4-1.3-2.7-2.8-2.7zm-14.4 19c0 1.9-1.6 3.5-3.5 3.5s-3.5-1.6-3.5-3.5 1.6-3.5 3.5-3.5 3.5 1.6 3.5 3.5z"/>
      <path d="m25 32.9c-1.3 0-2.3 1-2.3 2.3s1 2.3 2.3 2.3c1.2 0 2.3-1 2.3-2.3s-1.1-2.3-2.3-2.3z"/>
      <path d="m44.3 9.9c2.6 0 4.7-1.2 4.7-1.2s-2.1-1.2-4.7-1.2-4 0.5-4 1.2 1.4 1.2 4 1.2z"/>
      <path d="m36.9 8.7c0-0.7-1.3-1.2-3.9-1.2s-4.7 1.2-4.7 1.2 2.1 1.2 4.7 1.2 3.9-0.5 3.9-1.2z"/>
      <path d="m17 9.9c2.6 0 4.7-1.2 4.7-1.2s-2.1-1.2-4.7-1.2-3.9 0.5-3.9 1.2 1.3 1.2 3.9 1.2z"/>
      <path d="m9.7 8.7c0-0.7-1.3-1.2-3.9-1.2s-4.8 1.2-4.8 1.2 2.1 1.2 4.7 1.2 4-0.5 4-1.2z"/>
     </g>
    </g>
    <g transform="matrix(1.25 0 0 1.25 -81.784 -341.74)">
     <g fill="#000" stroke-width=".8">
      <path d="m48 6a6.49 6.49 0 0 0-6.5-6h-23a6.49 6.49 0 0 0-6.5 6 6 6 0 0 0 0 12h0.18a6.49 6.49 0 0 0 6.32 5h1.5a4.94 4.94 0 0 0-1 3v4.82l-3 1.7-2.36-1.41a7 7 0 0 0-7.71-9 1.94 1.94 0 0 0-1.53 1.3 2 2 0 0 0 0.48 2.06l2.82 2.83a1 1 0 0 1 0.27 0.92 1 1 0 0 1-0.36 0.58 1.08 1.08 0 0 1-1.39-0.16l-2.75-2.76a2 2 0 0 0-2.06-0.48 1.94 1.94 0 0 0-1.33 1.6 7 7 0 0 0 6.92 8 6.62 6.62 0 0 0 2.43-0.45l5 3a3 3 0 0 0 1.57 0.45 3.1 3.1 0 0 0 1.49-0.39l1.51-0.88a10.91 10.91 0 0 0 2.76 6.57 10 10 0 1 0 16.42 0 11 11 0 0 0 2.82-7.3v-11a4.94 4.94 0 0 0-1-3h1.5a6.49 6.49 0 0 0 6.32-5h0.18a6 6 0 0 0 0-12zm-10 11a5 5 0 1 1 5-5 5 5 0 0 1-5 5zm-6.23 30.86h0.21a6.37 6.37 0 0 0 0.73-0.16 3.17 3.17 0 0 0 0.44-0.12 4 4 0 1 1-6.3 0 3.17 3.17 0 0 0 0.44 0.12 6.37 6.37 0 0 0 0.73 0.16h0.21c0.28 0 0.57 0.08 0.85 0.1s0.61 0 0.92 0h0.92c0.3 0 0.57-0.06 0.85-0.1zm-15.77-35.86a7 7 0 1 1 7 7 7 7 0 0 1-7-7zm0.51 24.86a1 1 0 0 1-1 0l-4-2.43c0.18-0.15 0.35-0.31 0.52-0.47a6.94 6.94 0 0 0 0.85-1l2.12 1.28a2 2 0 0 0 2 0l3.42-2 9.07-5.18a1 1 0 0 1 1.36 0.37 1 1 0 0 1-0.38 1.37l-11 6.3z"/>
      <circle cx="30" cy="50" r="2"/>
      <path d="m28 12a5 5 0 1 0-5 5 5 5 0 0 0 5-5zm-6 0a1 1 0 1 1 0.29 0.71 1.05 1.05 0 0 1-0.29-0.71z"/>
      <circle cx="38" cy="12" r="3"/>
     </g>
    </g>
    <g transform="matrix(1.25 0 0 1.25 13.517 -274.64)">
     <g fill="#000" stroke-width=".8">
      <path d="m8.33 31.93a3.05 3.05 0 0 0 2.67-0.67 3 3 0 0 0 1-2.26 2.79 2.79 0 0 0-0.07-0.64 3 3 0 0 0-2-2.22 3.19 3.19 0 0 0-0.93-0.14 3 3 0 0 0-0.67 5.93z"/>
      <path d="m34 4a3 3 0 0 0-0.9 5.86 3 3 0 0 0 0.9 0.14 3 3 0 0 0 0-6z"/>
      <path d="m49 14a6.18 6.18 0 0 0-1.07 0.09l-7-5.95a6.13 6.13 0 0 0 0.07-1.14 7 7 0 0 0-14 0 5.47 5.47 0 0 0 0.05 0.82l-15.9 12.45a8.68 8.68 0 0 0-2.15-0.27 9 9 0 0 0-2.35 17.68l2.35 5.32h-0.5a8.5 8.5 0 0 0 0 17h25a8.5 8.5 0 0 0 0-17h-13.13l-4.83-7.81a9 9 0 0 0 2.46-6.19 8.34 8.34 0 0 0-0.1-1.33l14.58-13.85a6.39 6.39 0 0 0 1.52 0.18 6.78 6.78 0 0 0 1.73-0.22l7.27 6.15v0.07a6 6 0 0 0 2 4.46v4.54a2 2 0 0 0 1.33 1.88 1.92 1.92 0 0 0 0.07 0.67l0.68 2.36a2 2 0 0 0 3.84 0l0.68-2.36a1.92 1.92 0 0 0 0.07-0.67 2 2 0 0 0 1.33-1.88v-4.54a6 6 0 0 0-4-10.46zm1 2.13v7.74a4.23 4.23 0 0 1-2 0v-7.74a4 4 0 0 1 1-0.13 3.66 3.66 0 0 1 1 0.13zm-41 7.87a5.15 5.15 0 0 1 1.5 0.23 5 5 0 0 1 3.38 3.71 4.72 4.72 0 0 1 0.12 1.06 5 5 0 0 1-1.72 3.77 5 5 0 0 1-3.28 1.23 5.62 5.62 0 0 1-1.06-0.11 5 5 0 0 1 1.06-9.89zm29 27.5a4.49 4.49 0 0 1-2.39 4 3.92 3.92 0 0 1-0.79 0.33 4.59 4.59 0 0 1-1.32 0.2h-25a4.5 4.5 0 0 1-2.11-8.47 4.24 4.24 0 0 1 0.8-0.33 4.48 4.48 0 0 1 1.31-0.23h25a4.51 4.51 0 0 1 4.5 4.5zm-2.35-39.78a5 5 0 0 1-6.54-3.72 4.72 4.72 0 0 1-0.11-1 5 5 0 1 1 9.83 1.27 4.25 4.25 0 0 1-0.24 0.68 2.11 2.11 0 0 1-0.16 0.34 1 1 0 0 1-0.11 0.21 4.56 4.56 0 0 1-0.57 0.79 1.1 1.1 0 0 1-0.21 0.22 1.59 1.59 0 0 1-0.23 0.22 0.45 0.45 0 0 1-0.13 0.11 3.45 3.45 0 0 1-0.44 0.34 4.53 4.53 0 0 1-0.53 0.3 5.53 5.53 0 0 1-0.56 0.24z"/>
      <path d="m29.18 50.25c0-0.14 0.08-0.27 0.13-0.4a2.58 2.58 0 0 1 0.11-0.24 4 4 0 0 1 0.34-0.61h-17.52a4 4 0 0 1 0.34 0.61 2.58 2.58 0 0 1 0.11 0.24c0.05 0.13 0.09 0.26 0.13 0.4a2 2 0 0 1 0.09 0.35 4.54 4.54 0 0 1 0 1.8 2 2 0 0 1-0.09 0.35c0 0.14-0.08 0.27-0.13 0.4a2.59 2.59 0 0 1-0.11 0.24 4 4 0 0 1-0.34 0.61h17.52a4 4 0 0 1-0.34-0.61 2.59 2.59 0 0 1-0.11-0.24c-0.05-0.13-0.09-0.26-0.13-0.4a2 2 0 0 1-0.09-0.35 4.54 4.54 0 0 1 0-1.8 2 2 0 0 1 0.09-0.35z"/>
      <path d="m8.5 49a2.55 2.55 0 0 0-0.75 0.12 1.76 1.76 0 0 0-0.42 0.17 2.5 2.5 0 1 0 1.17-0.29z"/>
      <path d="m31 51.5a2.45 2.45 0 0 0 0.2 1 2.34 2.34 0 0 0 0.22 0.41 2 2 0 0 0 0.29 0.36 2.91 2.91 0 0 0 0.27 0.24 1.83 1.83 0 0 0 0.23 0.15 2.16 2.16 0 0 0 0.49 0.22l0.3 0.12a1.83 1.83 0 0 0 0.47 0 2.55 2.55 0 0 0 0.75-0.12 2.31 2.31 0 0 0 0.42-0.17 2.5 2.5 0 1 0-3.64-2.21z"/>
     </g>
    </g>
   </g>
   <g transform="matrix(1.5118 0 0 1.5118 -122.89 -177.81)" stroke-width=".66146">
    <path d="m59 11a1 1 0 0 0-1 1v3h-2.13a3.93 3.93 0 0 0-2.41-2.71 3.57 3.57 0 0 0-0.46-0.16v-2.13h3a1 1 0 0 0 0-2h-3a2 2 0 0 0-2 2v2.13a3.91 3.91 0 0 0-2.56 2 4 4 0 0 0 0.49 4.39 5.5 5.5 0 0 1-8.39 3.54 1 1 0 0 0-0.54-0.06v-3h2a2 2 0 0 0 2-2v-3a2 2 0 0 0-2-2h-2v-2a10 10 0 0 0-20 0v2h-2a2 2 0 0 0-2 2v3a2 2 0 0 0 2 2h2v3a1 1 0 0 0-0.54 0.16 5.49 5.49 0 0 1-8.39-3.56 4 4 0 0 0 0.49-4.36 3.92 3.92 0 0 0-2.56-2.11v-2.13a2 2 0 0 0-2-2h-3a1 1 0 0 0 0 2h3v2.13a4.12 4.12 0 0 0-0.42 0.14 4 4 0 0 0-2.45 2.73h-2.13v-3a1 1 0 0 0-2 0v3a2 2 0 0 0 2 2h2.13a3.92 3.92 0 0 0 0.87 1.68 11.53 11.53 0 0 0 11.47 10.32 11.28 11.28 0 0 0 2.53-0.28v7.28a2 2 0 0 0 2 2v6a3 3 0 0 0 0.77 2 3 3 0 0 0-0.77 2v3h-2a1 1 0 0 0-1 0.73l-2 7a1 1 0 0 0 0.16 0.87 1 1 0 0 0 0.8 0.4h26.04a1 1 0 0 0 0.8-0.4 1 1 0 0 0 0.16-0.87l-2-7a1 1 0 0 0-0.96-0.73h-2v-3a3 3 0 0 0-0.77-2 3 3 0 0 0 0.77-2v-6a2 2 0 0 0 2-2v-7.28a11.28 11.28 0 0 0 2.53 0.28 11.54 11.54 0 0 0 11.47-10.33 3.8 3.8 0 0 0 0.9-1.66h2.1a2 2 0 0 0 2-2v-3.01a1 1 0 0 0-1-1zm-7.53 8.94m-1.25-4.85a2 2 0 0 1 1.69-1.09h0.12a1.63 1.63 0 0 1 0.63 0.16 2 2 0 0 1 0.58 3.36 2.07 2.07 0 0 1-0.91 0.46 1.9 1.9 0 0 1-0.75 0l-0.27-0.07a1.93 1.93 0 0 1-0.7-0.42h-0.07a2 2 0 0 1-0.54-1.49 2 2 0 0 1 0.22-0.91zm-20.22 35.91h-1v-3a3 3 0 0 0-0.77-2 3 3 0 0 0 0.77-2v-6h2v6a3 3 0 0 0 0.77 2 3 3 0 0 0-0.77 2v3zm-6-36a1 1 0 0 1 0.08-0.38 1 1 0 0 1 1.11-0.6 0.6 0.6 0 0 1 0.19 0.06 0.56 0.56 0 0 1 0.17 0.09 1 1 0 0 1 0.16 0.12 1 1 0 0 1 0 1.42 1 1 0 0 1-0.16 0.12 0.56 0.56 0 0 1-0.17 0.09 0.6 0.6 0 0 1-0.19 0.06l-0.19 0.02a1 1 0 0 1-1-1zm10 0a1 1 0 1 1 2 0 1.35 1.35 0 0 1 0 0.2 0.64 0.64 0 0 1-0.06 0.18 0.55 0.55 0 0 1-0.09 0.17l-0.12 0.16a1 1 0 0 1-1.42 0 1 1 0 0 1-0.12-0.16 0.55 0.55 0 0 1-0.09-0.17 0.64 0.64 0 0 1-0.1-0.18 0.68 0.68 0 0 1 0-0.2zm4 5v2h-16v-2zm4-6v3h-2v-3zm-12-12a8 8 0 0 1 7.94 7h-15.88a8 8 0 0 1 7.94-7zm-12 15v-3h2v3zm-10.68-2.87a1.65 1.65 0 0 1 0.68-0.13 2 2 0 0 1 1.78 1.1 1.9 1.9 0 0 1 0.22 0.9 2 2 0 0 1-0.53 1.35l-0.11 0.09a2.15 2.15 0 0 1-0.64 0.4 0.83 0.83 0 0 1-0.21 0.06h-0.12a1.67 1.67 0 0 1-0.55 0h-0.24a0.86 0.86 0 0 1-0.23-0.06 2.14 2.14 0 0 1-0.69-0.41 2 2 0 0 1-0.68-1.43 2 2 0 0 1 1.32-1.87zm12.43 38.87h9.25v5h-10.67zm21.92 5h-10.67v-5h9.25z" fill="#000" stroke-width=".66146"/>
   </g>
   <g transform="matrix(1.3323 0 0 1.3323 279.96 -322.92)" stroke-width=".75056">
    <path d="m50.48 31.83-6.57 2.26-1-2.83 6.6-2.26 1 2.82zm-2.58-7.56 1 2.83-6.61 2.27-1-2.83 1.17-0.4zm-14.9-11.4v-4.87l3.5 2zm8.71-10.06a3.5 3.5 0 1 1-3.66 3.34 3.5 3.5 0 0 1 3.66-3.34zm-13.93-0.43h-1zm-9.49 0.44h0.17a3.51 3.51 0 1 1-0.17 0zm5.22 7.18 3.49-2v4.87zm3.49 9h6v2h-6zm-1 4h9v10.48h-10v-10.48zm-13.89 1.27 5.16 1.73 1.46 0.5-1 2.82-5.69-1.95-0.9-0.31zm-1.6 4.73 6.6 2.26-1 2.84-6.6-2.26zm12.49 23h-6v-5h6zm14 0v-5h6v5zm-25 4h-3.33a1 1 0 0 1 0-2h3.33a1 1 0 0 1 0 2zm0-4h-5a1 1 0 0 1 0-2h5a1 1 0 0 1 0 2zm0-4h-5a1 1 0 0 1 0-2h5a1 1 0 0 1 0 2zm0-4h-3.33a1 1 0 0 1 0-2h3.33a1 1 0 0 1 0 2zm48-3.5a2.5 2.5 0 0 0-2.5-2.5h-12.5v-2.17l6.12-2.1a2 2 0 0 0 1.26-2.55l-1-2.8a2 2 0 0 0-0.59-0.89 2 2 0 0 0 0-1l-1-2.84a2 2 0 0 0-1-1.15 2 2 0 0 0-1.53-0.09l-2.26 0.73v-0.14a2 2 0 0 0-2-2h-8v-2a2 2 0 0 0-2-2v-1.53l5.35-4.47 4.65 2.66a1.88 1.88 0 0 0 0.9 0.26l1.52 0.07h0.7a6.41 6.41 0 0 0 5.88-6.2 6.43 6.43 0 0 0-5.27-6.71 5.48 5.48 0 0 0-0.73-0.08l-4.2-0.18-8.49-0.39a2 2 0 0 0-2.09 1.9l-0.15 3.28a1.75 1.75 0 0 0 0 0.4h-2.18a1.81 1.81 0 0 0 0-0.4l-0.15-3.28a2 2 0 0 0-2.05-1.9l-8.49 0.38-4.2 0.19a4.87 4.87 0 0 0-0.7 0.07 6.43 6.43 0 0 0-5.3 6.72 6.41 6.41 0 0 0 5.87 6.21h0.72l1.52-0.07a1.88 1.88 0 0 0 0.9-0.26l4.65-2.67 5.34 4.47v1.53a2 2 0 0 0-2 2v2h-8a2 2 0 0 0-2 2v0.14l-2.25-0.77a2 2 0 0 0-2.54 1.26l-1 2.83a1.94 1.94 0 0 0-0.07 1 2 2 0 0 0-0.58 0.85l-1 2.85a2 2 0 0 0 1.26 2.53l6.18 2.14v2.17h-12.5a2.5 2.5 0 0 0-2.5 2.5v1a2.53 2.53 0 0 0 0.5 1.5 2.53 2.53 0 0 0-0.5 1.5v1a2.53 2.53 0 0 0 0.5 1.5 2.53 2.53 0 0 0-0.5 1.5v1a2.53 2.53 0 0 0 0.5 1.5 2.53 2.53 0 0 0-0.5 1.5v1a2.53 2.53 0 0 0 0.5 1.5 2.53 2.53 0 0 0-0.5 1.5v1a2.5 2.5 0 0 0 2.5 2.5h12.5a2 2 0 0 0 2-2v-4h6a2 2 0 0 0 2-2v-5h10v5a2 2 0 0 0 2 2h6v4a2 2 0 0 0 2 2h12.5a2.5 2.5 0 0 0 2.5-2.5v-1a2.53 2.53 0 0 0-0.5-1.5 2.53 2.53 0 0 0 0.5-1.5v-1a2.53 2.53 0 0 0-0.5-1.5 2.53 2.53 0 0 0 0.5-1.5v-1a2.53 2.53 0 0 0-0.5-1.5 2.53 2.53 0 0 0 0.5-1.5v-1a2.53 2.53 0 0 0-0.5-1.5 2.53 2.53 0 0 0 0.5-1.5zm-12 1.5h3.33a1 1 0 0 1 0 2h-3.33a1 1 0 0 1 0-2zm3.33 14h-3.33a1 1 0 0 1 0-2h3.33a1 1 0 0 1 0 2zm1.67-4h-5a1 1 0 0 1 0-2h5a1 1 0 0 1 0 2zm0-4h-5a1 1 0 0 1 0-2h5a1 1 0 0 1 0 2z" fill="#000" stroke-width=".75056"/>
   </g>
   <g>
    <g stroke-width=".8">
     <g transform="matrix(1.25 0 0 1.25 78.189 -191.67)">
      <g fill="#000" stroke-width=".8">
       <path d="m58 42h-2.13a3.83 3.83 0 0 0-0.87-1.68 11.36 11.36 0 0 0-4.86-8.25 21.21 21.21 0 0 0 0.86-5.07h-12v0.42c0 0.14 0 0.28-0.08 0.41s-0.1 0.45-0.17 0.67a6.48 6.48 0 0 1-0.26 0.78l-0.18 0.41a8.41 8.41 0 0 1-1 1.69c-0.15 0.2-0.31 0.39-0.47 0.57s-0.25 0.28-0.38 0.41l-0.18 0.17c-0.15 0.14-0.3 0.28-0.46 0.41h-0.06c-0.19 0.16-0.38 0.3-0.58 0.44l-0.42 0.27a7.62 7.62 0 0 1-0.89 0.48l-0.54 0.23a8.45 8.45 0 0 1-0.85 0.28l-0.28 0.07-0.41 0.09a9 9 0 0 1-3.38 0l-0.41-0.09-0.28-0.07a8.45 8.45 0 0 1-0.85-0.28l-0.54-0.23a7.62 7.62 0 0 1-0.89-0.48l-0.42-0.27c-0.2-0.14-0.39-0.28-0.58-0.44h-0.06c-0.16-0.13-0.31-0.27-0.46-0.41l-0.18-0.17c-0.13-0.13-0.26-0.27-0.38-0.41s-0.32-0.37-0.47-0.57a8.41 8.41 0 0 1-1-1.69l-0.18-0.41a6.48 6.48 0 0 1-0.26-0.78c-0.07-0.22-0.12-0.44-0.17-0.67s0-0.27-0.08-0.41 0-0.28 0-0.42h-12.2a21.12 21.12 0 0 0 0.88 5.07 11.34 11.34 0 0 0-4.88 8.26 3.86 3.86 0 0 0-0.87 1.67h-2.13a2 2 0 0 0-2 2v3a1 1 0 0 0 2 0v-3h2.13a3.93 3.93 0 0 0 2.41 2.71 3.58 3.58 0 0 0 0.46 0.16v2.13h-3a1 1 0 0 0 0 2h3a2 2 0 0 0 2-2v-2.13a3.91 3.91 0 0 0 2.56-2 4 4 0 0 0-0.48-4.38 5.26 5.26 0 0 1 1.48-2.77 20.91 20.91 0 0 0 9.74 7.85 3 3 0 0 0-1.3 2.43v3h-1.25a2 2 0 0 0-1.92 1.45l-1.43 5a2 2 0 0 0 1.93 2.55h9.67a1 1 0 0 0 1-1v-11a2.79 2.79 0 0 0-0.2-1h1.2 1.2a2.79 2.79 0 0 0-0.2 1v11a1 1 0 0 0 1 1h9.67a2 2 0 0 0 1.93-2.55l-1.43-5a2 2 0 0 0-1.92-1.45h-1.25v-3a3 3 0 0 0-1.3-2.48 20.91 20.91 0 0 0 9.74-7.85 5.29 5.29 0 0 1 1.48 2.78 4 4 0 0 0 2.08 6.42v2.13a2 2 0 0 0 2 2h3a1 1 0 0 0 0-2h-3v-2.13l0.42-0.14a4 4 0 0 0 2.45-2.73h2.13v3a1 1 0 0 0 2 0v-3a2 2 0 0 0-2-2zm-48.22 1.91a2 2 0 0 1-1.69 1.09h-0.16a1.63 1.63 0 0 1-0.63-0.16 2 2 0 0 1-0.58-3.36 2.5 2.5 0 0 1 0.43-0.29 1.81 1.81 0 0 1 0.46-0.19 1.71 1.71 0 0 1 0.75 0l0.27 0.07a1.93 1.93 0 0 1 0.7 0.42h0.07a2 2 0 0 1 0.6 1.51 2 2 0 0 1-0.22 0.91zm42.9 1a1.65 1.65 0 0 1-0.68 0.09 2 2 0 0 1-1.78-1.1 1.9 1.9 0 0 1-0.22-0.9 2 2 0 0 1 0.6-1.43l0.07-0.06a1.8 1.8 0 0 1 1-0.47 1.94 1.94 0 0 1 0.76 0 2.69 2.69 0 0 1 0.45 0.16 1.91 1.91 0 0 1 0.45 0.31 2 2 0 0 1 0.67 1.49 2 2 0 0 1-1.32 1.87z"/>
       <path d="m21 25a7.57 7.57 0 0 1 0.13-0.83 5.07 5.07 0 0 1 0.17-0.67 0.85 0.85 0 0 1 0-0.17 0.64 0.64 0 0 1 0.06-0.18 2.83 2.83 0 0 1 0.19-0.51 0.78 0.78 0 0 1 0.05-0.14 6.13 6.13 0 0 1 0.27-0.58 7.76 7.76 0 0 1 0.46-0.79l0.35-0.51 0.09-0.12 0.08-0.09c0.14-0.18 0.28-0.35 0.44-0.52l0.55-0.55a9 9 0 0 1 3.38-1.93l0.29-0.09 0.28-0.07 0.41-0.09a6.49 6.49 0 0 1 0.77-0.11h0.06a9.27 9.27 0 0 1 1.72 0h0.06a6.49 6.49 0 0 1 0.77 0.11h0.41l0.28 0.07 0.29 0.09a9 9 0 0 1 3.44 2.02l0.61 0.61c0.09 0.1 0.19 0.21 0.28 0.33l0.22 0.27 0.05 0.07c0.12 0.16 0.24 0.33 0.35 0.51a7.76 7.76 0 0 1 0.46 0.79 6.13 6.13 0 0 1 0.27 0.58 0.78 0.78 0 0 1 0.05 0.14 2.83 2.83 0 0 1 0.19 0.51 0.64 0.64 0 0 1 0.06 0.18 0.85 0.85 0 0 1 0 0.17 5.07 5.07 0 0 1 0.17 0.67 7.57 7.57 0 0 1 0.13 0.83h12.16a20.7 20.7 0 0 0-1.44-6.69 19.58 19.58 0 0 0-1.93-3.73 21 21 0 0 0-35.21 0 19.42 19.42 0 0 0-1.94 3.74 20.7 20.7 0 0 0-1.48 6.68z"/>
       <path d="m30 19a7 7 0 1 0 7 7 7 7 0 0 0-7-7zm0 11a4 4 0 1 1 4-4 4 4 0 0 1-4 4z"/>
       <circle cx="29.98" cy="26" r="2"/>
      </g>
     </g>
     <g transform="matrix(1.25 0 0 1.25 204.02 -168.7)">
      <g fill="#000" stroke-width=".8">
       <path d="m30 19a6.5 6.5 0 1 0-6.5-6.5 6.51 6.51 0 0 0 6.5 6.5zm-2-7h4a1 1 0 0 1 0 2h-4a1 1 0 0 1 0-2z"/>
       <path d="m59.17 57.11-8-16a2 2 0 0 0-1.79-1.11h-5.38a2 2 0 0 0-2 2v1h-7v-5.28a11.28 11.28 0 0 0 2.53 0.28 11.54 11.54 0 0 0 11.47-10.33 3.94 3.94 0 0 0 0.9-1.67h2.1a2 2 0 0 0 2-2v-3a1 1 0 0 0-2 0v3h-2.13a3.93 3.93 0 0 0-2.41-2.71 3.57 3.57 0 0 0-0.46-0.16v-2.13h3a1 1 0 0 0 0-2h-3a2 2 0 0 0-2 2v2.13a3.91 3.91 0 0 0-2.56 2 4 4 0 0 0 0.49 4.38 5.48 5.48 0 0 1-7.93 3.86v-7.37a12.5 12.5 0 1 0-10 0v7.42a5.48 5.48 0 0 1-7.93-3.82 4 4 0 0 0 0.49-4.36 3.92 3.92 0 0 0-2.56-2.11v-2.13a2 2 0 0 0-2-2h-3a1 1 0 0 0 0 2h3v2.13a4.13 4.13 0 0 0-0.42 0.14 4 4 0 0 0-2.45 2.73h-2.13v-3a1 1 0 0 0-2 0v3a2 2 0 0 0 2 2h2.13a3.88 3.88 0 0 0 0.9 1.67 11.53 11.53 0 0 0 11.44 10.33 11.28 11.28 0 0 0 2.53-0.28v5.28h-7v-1a2 2 0 0 0-2-2h-5.38a2 2 0 0 0-1.79 1.11l-8 16a2 2 0 0 0 1.79 2.89h13.38a2 2 0 0 0 2-2v-1h24v1a2 2 0 0 0 2 2h13.38a2 2 0 0 0 1.79-2.89zm-7.17-2.11h-5a1 1 0 0 1 0-2h5a1 1 0 0 1 0 2zm-4-8h-1a1 1 0 0 1 0-2h1a1 1 0 0 1 0 2zm2 2a1 1 0 0 1 0 2h-3a1 1 0 0 1 0-2zm-20-45a8.5 8.5 0 1 1-8.5 8.5 8.51 8.51 0 0 1 8.5-8.5zm14.22 20.09a2 2 0 0 1 1.71-1.09h0.07a1.82 1.82 0 0 1 0.67 0.16 2 2 0 0 1 0.58 3.36 2.07 2.07 0 0 1-0.91 0.46 1.9 1.9 0 0 1-0.75 0l-0.27-0.07a1.93 1.93 0 0 1-0.7-0.42h-0.07a2 2 0 0 1-0.55-1.49 2 2 0 0 1 0.22-0.91zm-30.9-1a1.65 1.65 0 0 1 0.68-0.09 2 2 0 0 1 1.78 1.1 1.9 1.9 0 0 1 0.22 0.9 2 2 0 0 1-0.53 1.35l-0.11 0.09-0.17 0.14h-0.07l-0.11 0.06-0.23 0.11-0.25 0.07h-0.08a1.84 1.84 0 0 1-0.74 0 2 2 0 0 1-1.71-1.82 2 2 0 0 1 1.32-1.87zm-3.32 25.91h3a1 1 0 0 1 0 2h-3a1 1 0 0 1 0-2zm-2 4h5a1 1 0 0 1 0 2h-5a1 1 0 0 1 0-2zm5-6h-1a1 1 0 0 1 0-2h1a1 1 0 0 1 0 2z"/>
      </g>
     </g>
     <g transform="matrix(1.25 0 0 1.25 116.34 346.33)">
      <g fill="#000" stroke-width=".8">
       <path d="m59 3a1 1 0 0 0-1 1v3h-2.13a3.93 3.93 0 0 0-2.41-2.71 3.57 3.57 0 0 0-0.46-0.16v-2.13h3a1 1 0 0 0 0-2h-3a2 2 0 0 0-2 2v2.13a3.91 3.91 0 0 0-2.56 2 4 4 0 0 0 0.49 4.38 5.49 5.49 0 0 1-5.4 4.49 4.57 4.57 0 0 1-0.53 0v-2a13 13 0 0 0-26 0v4a4.79 4.79 0 0 0-0.53 0 11.54 11.54 0 0 0-11.47 10.33 3.8 3.8 0 0 0-0.87 1.67h-2.13a2 2 0 0 0-2 2v3a1 1 0 0 0 2 0v-3h2.13a3.93 3.93 0 0 0 2.41 2.71 3.58 3.58 0 0 0 0.46 0.16v2.13h-3a1 1 0 0 0 0 2h3a2 2 0 0 0 2-2v-2.13a3.91 3.91 0 0 0 2.56-2 4 4 0 0 0-0.49-4.38 5.49 5.49 0 0 1 5.4-4.49 4.59 4.59 0 0 1 0.53 0v20a8.5037 8.5037 0 0 0 0.5 17h25a8.5037 8.5037 0 0 0 0.5-17v-22a4.6 4.6 0 0 0 0.53 0 11.54 11.54 0 0 0 11.47-10.33 3.8 3.8 0 0 0 0.87-1.67h2.13a2 2 0 0 0 2-2v-3a1 1 0 0 0-1-1zm-49.22 27.91a2 2 0 0 1-1.68 1.09h-0.1a1.63 1.63 0 0 1-0.67-0.15 2 2 0 0 1-0.58-3.36 2.49 2.49 0 0 1 0.43-0.29 2.67 2.67 0 0 1 0.36-0.14h0.11a1.85 1.85 0 0 1 0.74 0l0.27 0.07a1.93 1.93 0 0 1 0.7 0.42l0.11 0.09a2 2 0 0 1 0.34 2.29zm40.44-23.82a2 2 0 0 1 1.69-1.09h0.09a1.63 1.63 0 0 1 0.63 0.16 2 2 0 0 1 0.58 3.36 2.31 2.31 0 0 1-0.71 0.41h-0.19a1.85 1.85 0 0 1-0.74 0l-0.27-0.07a1.93 1.93 0 0 1-0.7-0.42h-0.08a2 2 0 0 1-0.34-2.29zm-7.72 48.91h-25a4.5 4.5 0 0 1 0-9h25a4.5 4.5 0 0 1 0 9zm-17.5-22a5 5 0 0 1 4-4.9v-2.2a5 5 0 0 1 0-9.8v-4.1a1 1 0 0 1 2 0v4.1a5 5 0 0 1 0 9.8v2.2a5 5 0 0 1 0 9.8v4.1h-2v-4.1a5 5 0 0 1-4-4.9z"/>
       <circle cx="30" cy="34" r="3"/>
       <circle cx="30" cy="22" r="3"/>
       <path d="m21.24 49a4.49 4.49 0 0 1 0 5h17.52a4.49 4.49 0 0 1 0-5z"/>
       <path d="m17.5 49a2.46 2.46 0 0 0-0.72 0.11l-0.23 0.08a2.3 2.3 0 0 0-0.64 0.38l-0.34 0.34a2.31 2.31 0 0 0-0.38 0.64 2.1 2.1 0 0 0-0.08 0.23 2.46 2.46 0 0 0-0.11 0.72 2.5 2.5 0 1 0 2.5-2.5z"/>
       <path d="m42.5 49a2.5 2.5 0 0 0 0 5 2.46 2.46 0 0 0 0.72-0.11l0.23-0.08a2.31 2.31 0 0 0 0.64-0.38 2.73 2.73 0 0 0 0.34-0.34 2.31 2.31 0 0 0 0.38-0.64 2.09 2.09 0 0 0 0.08-0.23 2.46 2.46 0 0 0 0.11-0.72 2.5 2.5 0 0 0-2.5-2.5z"/>
      </g>
     </g>
    </g>
    <g transform="matrix(1.5118 0 0 1.5118 -96.176 359.67)" stroke-width=".66146">
     <g fill="#000" stroke-width=".66146">
      <path d="m35 4.5v2.5a3.13 3.13 0 0 0-2.11-2.86 1.64 1.64 0 0 0-0.38-0.1 3 3 0 0 0-1.82 0.27 2.73 2.73 0 0 0-0.62 0.4l-0.07 0.06-0.07-0.06a2.85 2.85 0 0 0-0.7-0.44l-0.23-0.09-0.29-0.09a4 4 0 0 0-0.46-0.09 3.23 3.23 0 0 0-0.76 0 2 2 0 0 0-0.26 0.06 3.12 3.12 0 0 0-2.23 2.94v-2.5a4.51 4.51 0 0 1 4.5-4.5h1a4.51 4.51 0 0 1 4.5 4.5z"/>
      <path d="m32.51 4a3 3 0 0 0-1.82 0.27 3.16 3.16 0 0 1 2.2-0.17 1.64 1.64 0 0 0-0.38-0.1z"/>
      <path d="m20 13v6a0.86 0.86 0 0 0 0 0.16z"/>
      <polygon points="20 19.88 20 13 20.01 19.16 20.01 19.88"/>
      <path d="m52.54 23.38-3-6a3.2 3.2 0 0 0-0.53-0.75 4 4 0 0 0-2.56-3.38 2 2 0 0 0-2-2.27h-4.45v-0.98a1 1 0 0 0-2 0v1h-3v-4a1 1 0 0 1-2 0 1 1 0 0 0-0.65-0.93 0.55 0.55 0 0 0-0.17-0.07 1 1 0 0 0-0.82 0.22 0.75 0.75 0 0 0-0.15 0.16 0.42 0.42 0 0 0-0.09 0.14 0.93 0.93 0 0 0-0.12 0.48 1 1 0 0 1-2 0 0.93 0.93 0 0 0-0.12-0.46 0.42 0.42 0 0 0-0.09-0.14 0.75 0.75 0 0 0-0.15-0.16 1 1 0 0 0-0.64-0.24 0.59 0.59 0 0 0-0.18 0 0.55 0.55 0 0 0-0.17 0.05 1 1 0 0 0-0.65 0.95 1 1 0 0 1-2 0v4h-3v-1a1 1 0 0 0-2 0v1h-4.45a2 2 0 0 0-2 2.27 4 4 0 0 0-2.55 3.38 3.2 3.2 0 0 0-0.53 0.75l-3 6a3 3 0 0 0-0.57 1.76 3 3 0 0 0 0.62 1.84l4.31 5.51a2.35 2.35 0 0 0 1.17 0.85v3.64a2 2 0 0 0 2 2h2a2 2 0 0 0 2-2v-6a2 2 0 0 0-2-2h-0.3l-0.14-0.2-3.11-4 2-3.85a3.77 3.77 0 0 0 1.56-0.5 4.85 4.85 0 0 0 2.63 1.35 1.91 1.91 0 0 0 0.41 0.05v0.15a1 1 0 0 0 1 1h0.13l1.93 4.76a2 2 0 0 0 1.8 1.24h2.09v1h-2a2 2 0 0 0-2 2 2 2 0 0 0-2 2v9a2 2 0 0 0 0.27 1 2 2 0 0 1 1.73-1h2a2 2 0 0 1 1.73 1 2 2 0 0 0 0.27-1v-6h6v6a2 2 0 0 0 0.27 1 2 2 0 0 1 1.73-1h2a2 2 0 0 1 1.73 1 2 2 0 0 0 0.27-1v-9a2 2 0 0 0-2-2 2 2 0 0 0-2-2h-2v-1h2.09a2 2 0 0 0 1.85-1.25l1.93-4.75h0.13a1 1 0 0 0 1-1v-0.12a1.91 1.91 0 0 0 0.41-0.05 4.85 4.85 0 0 0 2.59-1.35 3.77 3.77 0 0 0 1.56 0.5l2 3.85-3.11 4a1.33 1.33 0 0 0-0.14 0.19h-0.31a2 2 0 0 0-2 2v6a2 2 0 0 0 2 2h2a2 2 0 0 0 2-2v-3.6a3.06 3.06 0 0 0 1.15-0.9l4.33-5.52a3 3 0 0 0 0.06-3.59zm-32.54-3.5a2.5 2.5 0 0 1-1.88-1.21 1.68 1.68 0 0 1-0.09-0.32 2 2 0 0 1-0.03-0.35 4.32 4.32 0 0 0 0-0.5 2.67 2.67 0 0 0-0.08-0.48 3.6 3.6 0 0 0-0.12-0.44 0.26 0.26 0 0 0 0-0.11c0-0.11-0.08-0.23-0.13-0.35a1 1 0 0 0-0.09-0.22c-0.05-0.12-0.11-0.25-0.18-0.38a0.34 0.34 0 0 0-0.06-0.12 2.83 2.83 0 0 0-0.27-0.47c-0.09-0.16-0.2-0.32-0.31-0.48a7.58 7.58 0 0 0-0.46-0.62l-0.36-0.44-0.39-0.39h4.45zm24.11-6.52c-0.13 0.15-0.25 0.29-0.36 0.44q-0.21 0.26-0.39 0.51a4.41 4.41 0 0 0-0.35 0.53q-0.15 0.24-0.27 0.48a0.34 0.34 0 0 0-0.06 0.12c-0.07 0.13-0.13 0.26-0.18 0.38a1 1 0 0 0-0.09 0.22c0 0.12-0.09 0.24-0.13 0.35a0.26 0.26 0 0 0 0 0.11 3.6 3.6 0 0 0-0.12 0.44 4 4 0 0 0-0.08 0.48 4.32 4.32 0 0 0 0 0.5 2 2 0 0 1 0 0.35 1.58 1.58 0 0 1-0.09 0.31 2.5 2.5 0 0 1-1.99 1.3v-6.88h4.45z"/>
      <path d="m27 45v9h-6v-9a2 2 0 0 1 0.27-1 2 2 0 0 0 1.73 1h2a2 2 0 0 0 1.73-1 2 2 0 0 1 0.27 1z"/>
      <path d="m29 56v2a2 2 0 0 1-2 2h-6a2 2 0 0 1-2-2v-2a2 2 0 0 1 2-2 2 2 0 0 0 2 2h2a2 2 0 0 0 2-2 2 2 0 0 1 2 2z"/>
      <path d="m39 45v9h-6v-9a2 2 0 0 1 0.27-1 2 2 0 0 0 1.73 1h2a2 2 0 0 0 1.73-1 2 2 0 0 1 0.27 1z"/>
      <path d="m41 56v2a2 2 0 0 1-2 2h-6a2 2 0 0 1-2-2v-2a2 2 0 0 1 2-2 2 2 0 0 0 2 2h2a2 2 0 0 0 2-2 2 2 0 0 1 2 2z"/>
     </g>
    </g>
    <g transform="matrix(1.1688 0 0 1.1688 227.85 134.79)" stroke-width=".85556">
     <g fill="#000" stroke-width=".85556">
      <path d="m57.5 38h-12.5a2 2 0 0 0-2 2v5h-6v-8h10a2 2 0 0 0 2-2v-9.93a3.11 3.11 0 0 1 3 2.93v2.67a4.66 4.66 0 0 0-0.71 1.23 4.79 4.79 0 0 0-0.29 1.6 4.08 4.08 0 0 0 0.29 1.5 2.42 2.42 0 0 0 0.18 0.43 1 1 0 0 0 0.88 0.52h5.65a2 2 0 0 0 1.93-1.49 4.29 4.29 0 0 0 0.12-1 4.39 4.39 0 0 0-1-2.81v-2.65c0-9-7.49-10.64-10.11-10.94a1 1 0 0 0 0-0.17 19 19 0 0 0-37.76 0 1 1 0 0 0 0 0.17c-2.69 0.3-10.18 1.94-10.18 10.94v2.69a4.39 4.39 0 0 0-1 2.81 4.29 4.29 0 0 0 0.12 1 2 2 0 0 0 1.88 1.5h5.6a1 1 0 0 0 0.88-0.52 2.42 2.42 0 0 0 0.23-0.48 4.08 4.08 0 0 0 0.29-1.5 4.82 4.82 0 0 0-0.3-1.63 4.6 4.6 0 0 0-0.7-1.19v-2.68c0-0.11 0-2.49 3-2.93v9.93a2 2 0 0 0 2 2h10v8h-6v-5a2 2 0 0 0-2-2h-12.5a2.5 2.5 0 0 0-2.5 2.5v1a2.53 2.53 0 0 0 0.5 1.5 2.53 2.53 0 0 0-0.5 1.5v1a2.53 2.53 0 0 0 0.5 1.5 2.53 2.53 0 0 0-0.5 1.5v1a2.53 2.53 0 0 0 0.5 1.5 2.53 2.53 0 0 0-0.5 1.5v1a2.53 2.53 0 0 0 0.5 1.5 2.53 2.53 0 0 0-0.5 1.5v1a2.5 2.5 0 0 0 2.5 2.5h12.5a2 2 0 0 0 2-2v-4h6a2 2 0 0 0 2 2h10a2 2 0 0 0 2-2h6v4a2 2 0 0 0 2 2h12.5a2.5 2.5 0 0 0 2.5-2.5v-1a2.53 2.53 0 0 0-0.5-1.5 2.53 2.53 0 0 0 0.5-1.5v-1a2.53 2.53 0 0 0-0.5-1.5 2.53 2.53 0 0 0 0.5-1.5v-1a2.53 2.53 0 0 0-0.5-1.5 2.53 2.53 0 0 0 0.5-1.5v-1a2.53 2.53 0 0 0-0.5-1.5 2.53 2.53 0 0 0 0.5-1.5v-1a2.5 2.5 0 0 0-2.5-2.5zm-44.5-14v-5-1h8.91a6.88 6.88 0 0 0-0.47 1.16 5.61 5.61 0 0 0-0.17 0.54 0.29 0.29 0 0 0 0 0.09c0 0.16-0.08 0.33-0.11 0.49s0 0.27-0.07 0.41 0 0.27 0 0.4a2.44 2.44 0 0 0 0 0.38v0.53 0.53a2.44 2.44 0 0 0 0 0.38v0.4 0.21a1.22 1.22 0 0 0 0 0.17c0 0.16 0.07 0.33 0.11 0.49a0.29 0.29 0 0 0 0 0.09 5.61 5.61 0 0 0 0.17 0.54 6.88 6.88 0 0 0 0.57 1.19h-8.94zm34-5v7h-8.94a6.88 6.88 0 0 0 0.47-1.16 5.61 5.61 0 0 0 0.17-0.54 0.29 0.29 0 0 0 0-0.09c0-0.16 0.08-0.33 0.11-0.49a1.22 1.22 0 0 0 0-0.17v-0.21-0.4a2.44 2.44 0 0 0 0-0.38v-0.53-0.53a2.44 2.44 0 0 0 0-0.38v-0.4-0.21a1.22 1.22 0 0 0 0-0.17c0-0.16-0.07-0.33-0.11-0.49a0.29 0.29 0 0 0 0-0.09 5.61 5.61 0 0 0-0.17-0.54 6.88 6.88 0 0 0-0.47-1.22h8.94v1zm-22.73-1 0.15-0.2a0.47 0.47 0 0 1 0.09-0.12 7 7 0 0 1 8.49-1.99 6.42 6.42 0 0 1 0.68 0.37 6.62 6.62 0 0 1 0.63 0.45 6.62 6.62 0 0 1 0.56 0.51 0.83 0.83 0 0 1 0.16 0.17 1.07 1.07 0 0 1 0.18 0.19v0.05l0.11 0.12a6.88 6.88 0 0 1 1.68 4.45 7 7 0 0 1-1.18 3.9c-0.08 0.1-0.15 0.21-0.24 0.31a1.78 1.78 0 0 1-0.12 0.17 7 7 0 0 1-8.46 1.93 5.76 5.76 0 0 1-0.69-0.38c-0.22-0.14-0.43-0.29-0.64-0.45a4.69 4.69 0 0 1-0.57-0.52 3.57 3.57 0 0 1-0.27-0.28 0.87 0.87 0 0 1-0.13-0.14l-0.11-0.13a6.88 6.88 0 0 1-1.59-4.41 7 7 0 0 1 1.18-3.9zm-8.27 13h7a1 1 0 0 1 0 2h-7a1 1 0 0 1 0-2zm42 3h-5a2.57 2.57 0 0 1 0-0.5 2.69 2.69 0 0 1 0.16-0.89 2.6 2.6 0 0 1 0.55-0.85 2.33 2.33 0 0 1 0.81-0.55 1.87 1.87 0 0 1 0.56-0.17 2.54 2.54 0 0 1 1.76 0.36 1.5 1.5 0 0 1 0.37 0.3 0.3 0.3 0 0 1 0.08 0.08 2.38 2.38 0 0 1 0.71 1.72 2.27 2.27 0 0 1 0 0.5zm-1-6v1.26l-0.37-0.11-0.39-0.08a3.51 3.51 0 0 0-0.55-0.05h-0.37a0.55 0.55 0 0 0-0.18 0 2 2 0 0 0-0.36 0 2.69 2.69 0 0 0-0.39 0.08 2.9 2.9 0 0 0-0.39 0.12v-1.22c0-1.6-1.08-4.52-5-5v-4c2.35 0.36 8 1.8 8 9zm-50 6h-4.89a2.6 2.6 0 0 1-0.11-0.5 2.42 2.42 0 0 1 0.71-1.73l0.08-0.07a1.62 1.62 0 0 1 0.38-0.31 2.21 2.21 0 0 1 0.63-0.28 2.56 2.56 0 0 1 1.14-0.11 2.11 2.11 0 0 1 0.55 0.17 2.37 2.37 0 0 1 0.79 0.54 2.71 2.71 0 0 1 0.54 0.82 2.81 2.81 0 0 1 0.18 0.97 2.76 2.76 0 0 1 0 0.5zm-1-6v1.26a3.42 3.42 0 0 0-0.39-0.12 2.44 2.44 0 0 0-0.37-0.08 4.34 4.34 0 0 0-0.74-0.06h-0.39l-0.4 0.05-0.35 0.08h-0.1l-0.26 0.13v-1.26c0-7.16 5.64-8.63 8-8.92v4c-3.92 0.4-5 3.32-5 4.92zm47 20h-5a1 1 0 0 1 0-2h5a1 1 0 0 1 0 2zm1 3a1 1 0 0 1-1 1h-5a1 1 0 0 1 0-2h5a1 1 0 0 1 1 1zm-7-8a1 1 0 0 1 1-1h3.33a1 1 0 0 1 0 2h-3.33a1 1 0 0 1-1-1zm1 11h3.33a1 1 0 0 1 0 2h-3.33a1 1 0 0 1 0-2zm-41-4h5a1 1 0 0 1 0 2h-5a1 1 0 0 1 0-2zm-1-3a1 1 0 0 1 1-1h5a1 1 0 0 1 0 2h-5a1 1 0 0 1-1-1zm7 8a1 1 0 0 1-1 1h-3.33a1 1 0 0 1 0-2h3.33a1 1 0 0 1 1 1zm-1-11h-3.33a1 1 0 0 1 0-2h3.33a1 1 0 0 1 0 2zm5 8v-5h6v5zm20 0v-5h6v5z"/>
      <path d="m30 27a5 5 0 1 0-3.89-1.87 5 5 0 0 0 3.89 1.87zm-2.34-6.87a3 3 0 0 1 4.67 0 2.89 2.89 0 0 1 0.67 1.87 3 3 0 0 1-5.33 1.88 2.89 2.89 0 0 1-0.67-1.88 3 3 0 0 1 0.66-1.87z"/>
     </g>
    </g>
    <g transform="matrix(1.1235 0 0 1.1235 79.455 -358.44)" stroke-width=".89005">
     <g fill="#000" stroke-width=".89005">
      <path d="m30 27a5 5 0 1 0-3.9-1.87 5 5 0 0 0 3.9 1.87zm-2.34-6.87a3 3 0 0 1 4.67 0 2.89 2.89 0 0 1 0.67 1.87 3 3 0 0 1-3 3 3 3 0 0 1-2.33-1.12 2.89 2.89 0 0 1-0.67-1.88 3 3 0 0 1 0.66-1.87z"/>
      <path d="m59 29.72v-2.72c0-9.18-7.76-10.7-10.25-11a19 19 0 0 0-37.5 0c-2.48 0.3-10.25 1.81-10.25 11v2.72a4.36 4.36 0 0 0-1 2.78 4.17 4.17 0 0 0 0.12 1 2 2 0 0 0 1.88 1.5h4.91a2 2 0 0 0 1.94-1.54 4.18 4.18 0 0 0 0.15-1 4.86 4.86 0 0 0-0.3-1.63 4.72 4.72 0 0 0-0.7-1.12v-2.71c0-0.11 0-2.48 3-2.92v26.92a2 2 0 0 0 2 2h2.07a8 8 0 0 0 7.93 7h14a8 8 0 0 0 7.93-7h2.07a2 2 0 0 0 2-2v-26.92a3.12 3.12 0 0 1 3 2.92v2.71a4.69 4.69 0 0 0-0.71 1.19 4.79 4.79 0 0 0-0.29 1.6 4.33 4.33 0 0 0 0.15 1 2 2 0 0 0 1.94 1.5h4.91a2 2 0 0 0 1.93-1.49 4.29 4.29 0 0 0 0.12-1 4.39 4.39 0 0 0-1.05-2.79zm-48-7.72c-3.93 0.43-5 3.35-5 5v1.26h-0.09a3.51 3.51 0 0 0-0.67-0.18 4.34 4.34 0 0 0-0.74-0.08 4.16 4.16 0 0 0-0.71 0.06h-0.22a3.45 3.45 0 0 0-0.46 0.12h-0.11v-1.18c0-7.16 5.64-8.63 8-8.92zm13.54-4.43a7 7 0 0 1 5.46-2.57 6.86 6.86 0 0 1 0.79 0 7 7 0 1 1-6.25 2.58zm-0.54 14.43a1 1 0 0 1-1 1h-7a1 1 0 0 1 0-2h7a1 1 0 0 1 1 1zm-1 9h-7a1 1 0 0 1 0-2h7a1 1 0 0 1 0 2zm1 3a1 1 0 0 1-1 1h-7a1 1 0 0 1 0-2h7a1 1 0 0 1 1 1zm-1-7h-7a1 1 0 0 1 0-2h7a1 1 0 0 1 0 2zm-10-18v-1h8.91v0.12c-0.11 0.24-0.22 0.48-0.31 0.72a0.78 0.78 0 0 0 0 0.14c-0.11 0.29-0.19 0.59-0.27 0.88v0.24c-0.05 0.24-0.09 0.47-0.12 0.7s0 0.18 0 0.27v0.93 0.93 0.27c0 0.09 0.07 0.46 0.12 0.7v0.24a8.93 8.93 0 0 0 0.27 0.88 0.5 0.5 0 0 0 0 0.13c0.09 0.25 0.2 0.49 0.31 0.73v0.12h-8.91zm2 29a1 1 0 0 1 1-1h7a1 1 0 0 1 0 2h-7a1 1 0 0 1-1-1zm22 10h-14a6 6 0 0 1-5.92-5h25.84a6 6 0 0 1-5.92 5zm8-17a2 2 0 0 1-2 2h-7a2 2 0 0 1-2-2v-6a2 2 0 0 1 2-2h7a2 2 0 0 1 2 2zm2-15h-8.94v-0.12c0.11-0.24 0.22-0.48 0.31-0.72a0.78 0.78 0 0 0 0-0.14c0.11-0.29 0.19-0.59 0.27-0.88v-0.24c0.05-0.24 0.09-0.47 0.12-0.7s0-0.18 0-0.27v-0.93-0.93-0.27c0-0.09-0.07-0.46-0.12-0.7v-0.24a8.93 8.93 0 0 0-0.27-0.88 0.5 0.5 0 0 0 0-0.13c-0.09-0.25-0.2-0.49-0.31-0.73v-0.12h8.94v1zm10 2.26h-0.12l-0.33-0.1h-0.19l-0.48-0.16h-0.38a4 4 0 0 0-0.72 0.06 3.79 3.79 0 0 0-0.7 0.18h-0.08v-1.24c0-1.6-1.08-4.52-5-5v-4c2.35 0.29 8 1.73 8 8.93z"/>
      <rect x="36" y="35" width="7" height="6"/>
     </g>
    </g>
    <g transform="matrix(1.0822 0 0 1.0822 265.47 285.99)" stroke-width=".924">
     <g fill="#000" stroke-width=".924">
      <rect x="32" y="31" width="2" height="6"/>
      <circle cx="22.5" cy="13.5" r="3.5"/>
      <circle cx="37.5" cy="13.5" r="3.5"/>
      <path d="m51 37h-2v-8a2 2 0 0 0-2-2h-5.13l0.49-4.51c3.74-1.49 5.64-4.14 5.64-7.99a11.4 11.4 0 0 0-0.36-2.84l2.79-4.45a2 2 0 0 0-0.29-2.48l-3.92-3.93a2 2 0 0 0-2.31-0.37l-4 2a21.06 21.06 0 0 0-9.91-2.43 21.06 21.06 0 0 0-9.95 2.41l-4-2a2 2 0 0 0-2.27 0.39l-3.92 3.93a2 2 0 0 0-0.29 2.48l2.79 4.45a11.4 11.4 0 0 0-0.36 2.84c0 3.85 1.9 6.54 5.64 8l0.49 4.5h-5.13a2 2 0 0 0-2 2v8h-2a2 2 0 0 0-2 2v1a5 5 0 0 0 5 5h3a2 2 0 0 0 2-2v-4a2 2 0 0 0-2-2h-2v-8h5.36l2.64 23.85-1.36 3.41a2 2 0 0 0 1.84 2.74h1.84a2 2 0 0 0 1.86-1.26l1.5-3.74h0.32v4a2 2 0 0 0 2 2h2a2 2 0 0 0 2-2v-4h0.32l1.5 3.74a2 2 0 0 0 1.86 1.26h1.84a2 2 0 0 0 1.86-2.74l-1.38-3.41 2.64-23.85h5.36v8h-2a2 2 0 0 0-2 2v4a2 2 0 0 0 2 2h3a5 5 0 0 0 5-5v-1a2 2 0 0 0-2-2zm-13.5-29a5.5 5.5 0 1 1-5.5 5.5 5.51 5.51 0 0 1 5.5-5.5zm-7.5 23a2 2 0 0 1 2-2h2a2 2 0 0 1 2 2v6a2 2 0 0 1-2 2h-2a2 2 0 0 1-2-2zm-7.5-23a5.5 5.5 0 1 1-5.5 5.5 5.51 5.51 0 0 1 5.5-5.5zm0.82 49h-1.84l1.2-3h1.84zm7.68 1h-2v-4h2zm5.68-1-1.2-3h1.84l1.2 3z"/>
     </g>
    </g>
    <g transform="matrix(1.2857 0 0 1.2857 20.306 1.602)" stroke-width=".93336">
     <g fill="#000" stroke-width=".93336">
      <path d="m25 13.5c-3.6 0-6.7 2.9-6.7 6.7 0 3.7 3 6.7 6.7 6.7s6.7-3 6.7-6.7c-0.1-3.7-3-6.7-6.7-6.7zm0 11.4c-2.6 0-4.8-2.1-4.8-4.8s2.2-4.8 4.8-4.8 4.8 2.1 4.8 4.8c-0.1 2.7-2.2 4.8-4.8 4.8z"/>
      <path d="m27.8 20.2c0 1.6-1.3 2.9-2.8 2.9-1.6 0-2.9-1.3-2.9-2.9 0-0.5 0.1-1 0.4-1.4 0.2 0.5 0.6 0.9 1.2 0.9 1.2 0 1.7-1.5 0.8-2.3 1.4-0.4 3.3 0.8 3.3 2.8z"/>
      <path d="m25 8c-7.2 0-13.2 5.8-13.2 13.2v12c2.8-0.8 5.6 1.4 5.6 4.3v3.5h15.1v-3.5c0-2.8 2.7-5.1 5.6-4.3v-12c0.1-7.3-5.8-13.2-13.1-13.2zm0 20.7c-4.7 0-8.6-3.8-8.6-8.6 0-4.7 3.8-8.6 8.6-8.6 4.7 0 8.6 3.9 8.6 8.6-0.1 4.8-3.9 8.6-8.6 8.6z"/>
      <path d="m15.5 37.5v9c0 1.4-1.1 2.5-2.5 2.5s-2.5-1.1-2.5-2.5v-9c0-1.4 1.1-2.5 2.5-2.5 1.4-0.1 2.5 1 2.5 2.5z"/>
      <path d="m45.1 42c0 1.5-1.2 2.8-2.8 2.8h-0.9v-5.6h0.9c1.6 0 2.8 1.2 2.8 2.8z"/>
      <path d="m8.6 39.2v5.6h-0.9c-1.5 0-2.8-1.3-2.8-2.8s1.3-2.8 2.8-2.8z"/>
      <path d="m39.5 37.5v9c0 1.4-1.1 2.5-2.5 2.5s-2.5-1.1-2.5-2.5v-9c0-1.4 1.1-2.5 2.5-2.5 1.3-0.1 2.5 1 2.5 2.5z"/>
      <path d="m41.4 3.9c0 2.1-2.2 3.5-4.1 2.6l-3 3c-0.5-0.4-1-0.8-1.6-1.1l3.2-3.2c-0.9-1.9 0.4-4.2 2.6-4.2 1.6 0 2.9 1.3 2.9 2.9z"/>
      <path d="m17.2 8.3c-0.6 0.3-1.1 0.7-1.6 1.1l-3-3c-1.9 0.9-4-0.5-4-2.6 0-1.5 1.2-2.8 2.8-2.8 2.1 0 3.5 2.2 2.5 4.1z"/>
     </g>
    </g>
   </g>
  </g>
 </g>
</svg>
