<?xml version="1.0" encoding="UTF-8"?>
<svg width="59.856mm" height="44.892mm" fill="#000000" version="1.1" viewBox="0 0 135.74 101.8" xmlns="http://www.w3.org/2000/svg" xmlns:cc="http://creativecommons.org/ns#" xmlns:dc="http://purl.org/dc/elements/1.1/" xmlns:rdf="http://www.w3.org/1999/02/22-rdf-syntax-ns#">
 <metadata>
  <rdf:RDF>
   <cc:Work rdf:about="">
    <dc:format>image/svg+xml</dc:format>
    <dc:type rdf:resource="http://purl.org/dc/dcmitype/StillImage"/>
    <dc:title>Robots - Solid - 002 - Wall E</dc:title>
   </cc:Work>
  </rdf:RDF>
 </metadata>
 <title>Robots - Solid - 002 - Wall E</title>
 <g transform="translate(16.624 16.886)" display="none">
  <g transform="matrix(.72642 0 0 .72642 13.145 9.5033)" display="inline" fill="#ccc">
   <rect x="-40.98" y="-36.327" width="186.86" height="140.14" fill="#ccc"/>
  </g>
 </g>
 <g transform="translate(15.42 17.157)">
  <g transform="matrix(1.25 0 0 1.25 18.082 -3.756)" fill="#000" stroke-width=".8">
   <g fill="#000" stroke-width=".8">
    <path d="m8.33 31.93a3.05 3.05 0 0 0 2.67-0.67 3 3 0 0 0 1-2.26 2.79 2.79 0 0 0-0.07-0.64 3 3 0 0 0-2-2.22 3.19 3.19 0 0 0-0.93-0.14 3 3 0 0 0-0.67 5.93z"/>
    <path d="m34 4a3 3 0 0 0-0.9 5.86 3 3 0 0 0 0.9 0.14 3 3 0 0 0 0-6z"/>
    <path d="m49 14a6.18 6.18 0 0 0-1.07 0.09l-7-5.95a6.13 6.13 0 0 0 0.07-1.14 7 7 0 0 0-14 0 5.47 5.47 0 0 0 0.05 0.82l-15.9 12.45a8.68 8.68 0 0 0-2.15-0.27 9 9 0 0 0-2.35 17.68l2.35 5.32h-0.5a8.5 8.5 0 0 0 0 17h25a8.5 8.5 0 0 0 0-17h-13.13l-4.83-7.81a9 9 0 0 0 2.46-6.19 8.34 8.34 0 0 0-0.1-1.33l14.58-13.85a6.39 6.39 0 0 0 1.52 0.18 6.78 6.78 0 0 0 1.73-0.22l7.27 6.15v0.07a6 6 0 0 0 2 4.46v4.54a2 2 0 0 0 1.33 1.88 1.92 1.92 0 0 0 0.07 0.67l0.68 2.36a2 2 0 0 0 3.84 0l0.68-2.36a1.92 1.92 0 0 0 0.07-0.67 2 2 0 0 0 1.33-1.88v-4.54a6 6 0 0 0-4-10.46zm1 2.13v7.74a4.23 4.23 0 0 1-2 0v-7.74a4 4 0 0 1 1-0.13 3.66 3.66 0 0 1 1 0.13zm-41 7.87a5.15 5.15 0 0 1 1.5 0.23 5 5 0 0 1 3.38 3.71 4.72 4.72 0 0 1 0.12 1.06 5 5 0 0 1-1.72 3.77 5 5 0 0 1-3.28 1.23 5.62 5.62 0 0 1-1.06-0.11 5 5 0 0 1 1.06-9.89zm29 27.5a4.49 4.49 0 0 1-2.39 4 3.92 3.92 0 0 1-0.79 0.33 4.59 4.59 0 0 1-1.32 0.2h-25a4.5 4.5 0 0 1-2.11-8.47 4.24 4.24 0 0 1 0.8-0.33 4.48 4.48 0 0 1 1.31-0.23h25a4.51 4.51 0 0 1 4.5 4.5zm-2.35-39.78a5 5 0 0 1-6.54-3.72 4.72 4.72 0 0 1-0.11-1 5 5 0 1 1 9.83 1.27 4.25 4.25 0 0 1-0.24 0.68 2.11 2.11 0 0 1-0.16 0.34 1 1 0 0 1-0.11 0.21 4.56 4.56 0 0 1-0.57 0.79 1.1 1.1 0 0 1-0.21 0.22 1.59 1.59 0 0 1-0.23 0.22 0.45 0.45 0 0 1-0.13 0.11 3.45 3.45 0 0 1-0.44 0.34 4.53 4.53 0 0 1-0.53 0.3 5.53 5.53 0 0 1-0.56 0.24z"/>
    <path d="m29.18 50.25c0-0.14 0.08-0.27 0.13-0.4a2.58 2.58 0 0 1 0.11-0.24 4 4 0 0 1 0.34-0.61h-17.52a4 4 0 0 1 0.34 0.61 2.58 2.58 0 0 1 0.11 0.24c0.05 0.13 0.09 0.26 0.13 0.4a2 2 0 0 1 0.09 0.35 4.54 4.54 0 0 1 0 1.8 2 2 0 0 1-0.09 0.35c0 0.14-0.08 0.27-0.13 0.4a2.59 2.59 0 0 1-0.11 0.24 4 4 0 0 1-0.34 0.61h17.52a4 4 0 0 1-0.34-0.61 2.59 2.59 0 0 1-0.11-0.24c-0.05-0.13-0.09-0.26-0.13-0.4a2 2 0 0 1-0.09-0.35 4.54 4.54 0 0 1 0-1.8 2 2 0 0 1 0.09-0.35z"/>
    <path d="m8.5 49a2.55 2.55 0 0 0-0.75 0.12 1.76 1.76 0 0 0-0.42 0.17 2.5 2.5 0 1 0 1.17-0.29z"/>
    <path d="m31 51.5a2.45 2.45 0 0 0 0.2 1 2.34 2.34 0 0 0 0.22 0.41 2 2 0 0 0 0.29 0.36 2.91 2.91 0 0 0 0.27 0.24 1.83 1.83 0 0 0 0.23 0.15 2.16 2.16 0 0 0 0.49 0.22l0.3 0.12a1.83 1.83 0 0 0 0.47 0 2.55 2.55 0 0 0 0.75-0.12 2.31 2.31 0 0 0 0.42-0.17 2.5 2.5 0 1 0-3.64-2.21z"/>
   </g>
  </g>
 </g>
</svg>
