<?xml version="1.0" encoding="UTF-8"?>
<svg width="59.856mm" height="44.892mm" fill="#000000" version="1.1" viewBox="0 0 135.74 101.8" xmlns="http://www.w3.org/2000/svg" xmlns:cc="http://creativecommons.org/ns#" xmlns:dc="http://purl.org/dc/elements/1.1/" xmlns:rdf="http://www.w3.org/1999/02/22-rdf-syntax-ns#">
 <metadata>
  <rdf:RDF>
   <cc:Work rdf:about="">
    <dc:format>image/svg+xml</dc:format>
    <dc:type rdf:resource="http://purl.org/dc/dcmitype/StillImage"/>
    <dc:title>Robots - Solid - 002 - Wall E</dc:title>
   </cc:Work>
  </rdf:RDF>
 </metadata>
 <title>Robots - Solid - 002 - Wall E</title>
 <g transform="translate(16.624 16.886)" display="none">
  <g transform="matrix(.72642 0 0 .72642 13.145 9.5033)" display="inline" fill="#ccc">
   <rect x="-40.98" y="-36.327" width="186.86" height="140.14" fill="#ccc"/>
  </g>
 </g>
 <g transform="translate(15.42 17.157)">
  <g transform="matrix(1.5 0 0 1.5 14.948 -3.7273)" fill="#000" stroke-width=".8">
   <g fill="#000" stroke-width=".8">
    <path d="m42.9 16.2h-1.3v-3.7h-0.2c-1.1 0-2-0.8-2-1.9v-4.2h-1.6v4.3c0 1-0.9 1.9-2 1.9v3.7h-21.5v-3.7c-0.1 0-2.2 0.1-2.2-1.9v-4.3h-1.6v4.3c0 1-0.9 1.9-2 1.9v3.7h-1.4c-1.5 0-2.8 1.2-2.8 2.8 0 1.5 1.2 2.8 2.8 2.8h6.4l-5.4 20.1c-0.2 0.6 0.1 1.3 0.7 1.5s1.3-0.1 1.5-0.7l5.6-21 2.4 5.6h3.8v2.3h-4.1c-1.1 0-2 0.9-2 2v6.9c0 1.1 0.9 2 2 2h14c1.1 0 2-0.9 2-2v-6.9c0-1.1-0.9-2-2-2h-4.1v-2.3h3.8l2.4-5.6 5.6 21c0.2 0.6 0.9 0.9 1.5 0.7s0.9-0.9 0.7-1.5l-5.4-20.3h6.4c1.5 0 2.8-1.2 2.8-2.8 0-1.4-1.3-2.7-2.8-2.7zm-14.4 19c0 1.9-1.6 3.5-3.5 3.5s-3.5-1.6-3.5-3.5 1.6-3.5 3.5-3.5 3.5 1.6 3.5 3.5z"/>
    <path d="m25 32.9c-1.3 0-2.3 1-2.3 2.3s1 2.3 2.3 2.3c1.2 0 2.3-1 2.3-2.3s-1.1-2.3-2.3-2.3z"/>
    <path d="m44.3 9.9c2.6 0 4.7-1.2 4.7-1.2s-2.1-1.2-4.7-1.2-4 0.5-4 1.2 1.4 1.2 4 1.2z"/>
    <path d="m36.9 8.7c0-0.7-1.3-1.2-3.9-1.2s-4.7 1.2-4.7 1.2 2.1 1.2 4.7 1.2 3.9-0.5 3.9-1.2z"/>
    <path d="m17 9.9c2.6 0 4.7-1.2 4.7-1.2s-2.1-1.2-4.7-1.2-3.9 0.5-3.9 1.2 1.3 1.2 3.9 1.2z"/>
    <path d="m9.7 8.7c0-0.7-1.3-1.2-3.9-1.2s-4.8 1.2-4.8 1.2 2.1 1.2 4.7 1.2 4-0.5 4-1.2z"/>
   </g>
  </g>
 </g>
</svg>
