<?xml version="1.0" encoding="UTF-8"?>
<svg width="59.856mm" height="44.892mm" fill="#000000" version="1.1" viewBox="0 0 135.74 101.8" xmlns="http://www.w3.org/2000/svg" xmlns:cc="http://creativecommons.org/ns#" xmlns:dc="http://purl.org/dc/elements/1.1/" xmlns:rdf="http://www.w3.org/1999/02/22-rdf-syntax-ns#">
 <metadata>
  <rdf:RDF>
   <cc:Work rdf:about="">
    <dc:format>image/svg+xml</dc:format>
    <dc:type rdf:resource="http://purl.org/dc/dcmitype/StillImage"/>
    <dc:title>Robots - Solid - 002 - Wall E</dc:title>
   </cc:Work>
  </rdf:RDF>
 </metadata>
 <title>Robots - Solid - 002 - Wall E</title>
 <g transform="translate(16.624 16.886)" display="none">
  <g transform="matrix(.72642 0 0 .72642 13.145 9.5033)" display="inline" fill="#ccc">
   <rect x="-40.98" y="-36.327" width="186.86" height="140.14" fill="#ccc"/>
  </g>
 </g>
 <g transform="translate(15.42 17.157)">
  <g transform="matrix(1.1235 0 0 1.1235 18.714 -.0024067)" fill="#000" stroke-width=".89005">
   <g fill="#000" stroke-width=".89005">
    <path d="m30 27a5 5 0 1 0-3.9-1.87 5 5 0 0 0 3.9 1.87zm-2.34-6.87a3 3 0 0 1 4.67 0 2.89 2.89 0 0 1 0.67 1.87 3 3 0 0 1-3 3 3 3 0 0 1-2.33-1.12 2.89 2.89 0 0 1-0.67-1.88 3 3 0 0 1 0.66-1.87z"/>
    <path d="m59 29.72v-2.72c0-9.18-7.76-10.7-10.25-11a19 19 0 0 0-37.5 0c-2.48 0.3-10.25 1.81-10.25 11v2.72a4.36 4.36 0 0 0-1 2.78 4.17 4.17 0 0 0 0.12 1 2 2 0 0 0 1.88 1.5h4.91a2 2 0 0 0 1.94-1.54 4.18 4.18 0 0 0 0.15-1 4.86 4.86 0 0 0-0.3-1.63 4.72 4.72 0 0 0-0.7-1.12v-2.71c0-0.11 0-2.48 3-2.92v26.92a2 2 0 0 0 2 2h2.07a8 8 0 0 0 7.93 7h14a8 8 0 0 0 7.93-7h2.07a2 2 0 0 0 2-2v-26.92a3.12 3.12 0 0 1 3 2.92v2.71a4.69 4.69 0 0 0-0.71 1.19 4.79 4.79 0 0 0-0.29 1.6 4.33 4.33 0 0 0 0.15 1 2 2 0 0 0 1.94 1.5h4.91a2 2 0 0 0 1.93-1.49 4.29 4.29 0 0 0 0.12-1 4.39 4.39 0 0 0-1.05-2.79zm-48-7.72c-3.93 0.43-5 3.35-5 5v1.26h-0.09a3.51 3.51 0 0 0-0.67-0.18 4.34 4.34 0 0 0-0.74-0.08 4.16 4.16 0 0 0-0.71 0.06h-0.22a3.45 3.45 0 0 0-0.46 0.12h-0.11v-1.18c0-7.16 5.64-8.63 8-8.92zm13.54-4.43a7 7 0 0 1 5.46-2.57 6.86 6.86 0 0 1 0.79 0 7 7 0 1 1-6.25 2.58zm-0.54 14.43a1 1 0 0 1-1 1h-7a1 1 0 0 1 0-2h7a1 1 0 0 1 1 1zm-1 9h-7a1 1 0 0 1 0-2h7a1 1 0 0 1 0 2zm1 3a1 1 0 0 1-1 1h-7a1 1 0 0 1 0-2h7a1 1 0 0 1 1 1zm-1-7h-7a1 1 0 0 1 0-2h7a1 1 0 0 1 0 2zm-10-18v-1h8.91v0.12c-0.11 0.24-0.22 0.48-0.31 0.72a0.78 0.78 0 0 0 0 0.14c-0.11 0.29-0.19 0.59-0.27 0.88v0.24c-0.05 0.24-0.09 0.47-0.12 0.7s0 0.18 0 0.27v0.93 0.93 0.27c0 0.09 0.07 0.46 0.12 0.7v0.24a8.93 8.93 0 0 0 0.27 0.88 0.5 0.5 0 0 0 0 0.13c0.09 0.25 0.2 0.49 0.31 0.73v0.12h-8.91zm2 29a1 1 0 0 1 1-1h7a1 1 0 0 1 0 2h-7a1 1 0 0 1-1-1zm22 10h-14a6 6 0 0 1-5.92-5h25.84a6 6 0 0 1-5.92 5zm8-17a2 2 0 0 1-2 2h-7a2 2 0 0 1-2-2v-6a2 2 0 0 1 2-2h7a2 2 0 0 1 2 2zm2-15h-8.94v-0.12c0.11-0.24 0.22-0.48 0.31-0.72a0.78 0.78 0 0 0 0-0.14c0.11-0.29 0.19-0.59 0.27-0.88v-0.24c0.05-0.24 0.09-0.47 0.12-0.7s0-0.18 0-0.27v-0.93-0.93-0.27c0-0.09-0.07-0.46-0.12-0.7v-0.24a8.93 8.93 0 0 0-0.27-0.88 0.5 0.5 0 0 0 0-0.13c-0.09-0.25-0.2-0.49-0.31-0.73v-0.12h8.94v1zm10 2.26h-0.12l-0.33-0.1h-0.19l-0.48-0.16h-0.38a4 4 0 0 0-0.72 0.06 3.79 3.79 0 0 0-0.7 0.18h-0.08v-1.24c0-1.6-1.08-4.52-5-5v-4c2.35 0.29 8 1.73 8 8.93z"/>
    <rect x="36" y="35" width="7" height="6"/>
   </g>
  </g>
 </g>
</svg>
