<?xml version="1.0" encoding="UTF-8"?>
<svg width="59.856mm" height="44.892mm" fill="#000000" version="1.1" viewBox="0 0 135.74 101.8" xmlns="http://www.w3.org/2000/svg" xmlns:cc="http://creativecommons.org/ns#" xmlns:dc="http://purl.org/dc/elements/1.1/" xmlns:rdf="http://www.w3.org/1999/02/22-rdf-syntax-ns#">
 <metadata>
  <rdf:RDF>
   <cc:Work rdf:about="">
    <dc:format>image/svg+xml</dc:format>
    <dc:type rdf:resource="http://purl.org/dc/dcmitype/StillImage"/>
    <dc:title>Robots - Solid - 002 - Wall E</dc:title>
   </cc:Work>
  </rdf:RDF>
 </metadata>
 <title>Robots - Solid - 002 - Wall E</title>
 <g transform="translate(16.624 16.886)" display="none">
  <g transform="matrix(.72642 0 0 .72642 13.145 9.5033)" display="inline" fill="#ccc">
   <rect x="-40.98" y="-36.327" width="186.86" height="140.14" fill="#ccc"/>
  </g>
 </g>
 <g transform="translate(15.42 17.157)">
  <g transform="matrix(1.25 0 0 1.25 18.693 -3.7618)" fill="#000" stroke-width=".8">
   <g fill="#000" stroke-width=".8">
    <path d="m48 6a6.49 6.49 0 0 0-6.5-6h-23a6.49 6.49 0 0 0-6.5 6 6 6 0 0 0 0 12h0.18a6.49 6.49 0 0 0 6.32 5h1.5a4.94 4.94 0 0 0-1 3v4.82l-3 1.7-2.36-1.41a7 7 0 0 0-7.71-9 1.94 1.94 0 0 0-1.53 1.3 2 2 0 0 0 0.48 2.06l2.82 2.83a1 1 0 0 1 0.27 0.92 1 1 0 0 1-0.36 0.58 1.08 1.08 0 0 1-1.39-0.16l-2.75-2.76a2 2 0 0 0-2.06-0.48 1.94 1.94 0 0 0-1.33 1.6 7 7 0 0 0 6.92 8 6.62 6.62 0 0 0 2.43-0.45l5 3a3 3 0 0 0 1.57 0.45 3.1 3.1 0 0 0 1.49-0.39l1.51-0.88a10.91 10.91 0 0 0 2.76 6.57 10 10 0 1 0 16.42 0 11 11 0 0 0 2.82-7.3v-11a4.94 4.94 0 0 0-1-3h1.5a6.49 6.49 0 0 0 6.32-5h0.18a6 6 0 0 0 0-12zm-10 11a5 5 0 1 1 5-5 5 5 0 0 1-5 5zm-6.23 30.86h0.21a6.37 6.37 0 0 0 0.73-0.16 3.17 3.17 0 0 0 0.44-0.12 4 4 0 1 1-6.3 0 3.17 3.17 0 0 0 0.44 0.12 6.37 6.37 0 0 0 0.73 0.16h0.21c0.28 0 0.57 0.08 0.85 0.1s0.61 0 0.92 0h0.92c0.3 0 0.57-0.06 0.85-0.1zm-15.77-35.86a7 7 0 1 1 7 7 7 7 0 0 1-7-7zm0.51 24.86a1 1 0 0 1-1 0l-4-2.43c0.18-0.15 0.35-0.31 0.52-0.47a6.94 6.94 0 0 0 0.85-1l2.12 1.28a2 2 0 0 0 2 0l3.42-2 9.07-5.18a1 1 0 0 1 1.36 0.37 1 1 0 0 1-0.38 1.37l-11 6.3z"/>
    <circle cx="30" cy="50" r="2"/>
    <path d="m28 12a5 5 0 1 0-5 5 5 5 0 0 0 5-5zm-6 0a1 1 0 1 1 0.29 0.71 1.05 1.05 0 0 1-0.29-0.71z"/>
    <circle cx="38" cy="12" r="3"/>
   </g>
  </g>
 </g>
</svg>
