<?xml version="1.0" encoding="UTF-8"?>
<svg width="59.856mm" height="44.892mm" fill="#000000" version="1.1" viewBox="0 0 135.74 101.8" xmlns="http://www.w3.org/2000/svg" xmlns:cc="http://creativecommons.org/ns#" xmlns:dc="http://purl.org/dc/elements/1.1/" xmlns:rdf="http://www.w3.org/1999/02/22-rdf-syntax-ns#">
 <metadata>
  <rdf:RDF>
   <cc:Work rdf:about="">
    <dc:format>image/svg+xml</dc:format>
    <dc:type rdf:resource="http://purl.org/dc/dcmitype/StillImage"/>
    <dc:title>Robots - Solid - 002 - Wall E</dc:title>
   </cc:Work>
  </rdf:RDF>
 </metadata>
 <title>Robots - Solid - 002 - Wall E</title>
 <g transform="translate(16.624 16.886)" display="none">
  <g transform="matrix(.72642 0 0 .72642 13.145 9.5033)" display="inline" fill="#ccc">
   <rect x="-40.98" y="-36.327" width="186.86" height="140.14" fill="#ccc"/>
  </g>
 </g>
 <g transform="translate(15.42 17.157)">
  <g transform="matrix(1.25 0 0 1.25 14.948 -6.8987)" fill="#000" stroke-width=".8">
   <g fill="#000" stroke-width=".8">
    <path d="m58 42h-2.13a3.83 3.83 0 0 0-0.87-1.68 11.36 11.36 0 0 0-4.86-8.25 21.21 21.21 0 0 0 0.86-5.07h-12v0.42c0 0.14 0 0.28-0.08 0.41s-0.1 0.45-0.17 0.67a6.48 6.48 0 0 1-0.26 0.78l-0.18 0.41a8.41 8.41 0 0 1-1 1.69c-0.15 0.2-0.31 0.39-0.47 0.57s-0.25 0.28-0.38 0.41l-0.18 0.17c-0.15 0.14-0.3 0.28-0.46 0.41h-0.06c-0.19 0.16-0.38 0.3-0.58 0.44l-0.42 0.27a7.62 7.62 0 0 1-0.89 0.48l-0.54 0.23a8.45 8.45 0 0 1-0.85 0.28l-0.28 0.07-0.41 0.09a9 9 0 0 1-3.38 0l-0.41-0.09-0.28-0.07a8.45 8.45 0 0 1-0.85-0.28l-0.54-0.23a7.62 7.62 0 0 1-0.89-0.48l-0.42-0.27c-0.2-0.14-0.39-0.28-0.58-0.44h-0.06c-0.16-0.13-0.31-0.27-0.46-0.41l-0.18-0.17c-0.13-0.13-0.26-0.27-0.38-0.41s-0.32-0.37-0.47-0.57a8.41 8.41 0 0 1-1-1.69l-0.18-0.41a6.48 6.48 0 0 1-0.26-0.78c-0.07-0.22-0.12-0.44-0.17-0.67s0-0.27-0.08-0.41 0-0.28 0-0.42h-12.2a21.12 21.12 0 0 0 0.88 5.07 11.34 11.34 0 0 0-4.88 8.26 3.86 3.86 0 0 0-0.87 1.67h-2.13a2 2 0 0 0-2 2v3a1 1 0 0 0 2 0v-3h2.13a3.93 3.93 0 0 0 2.41 2.71 3.58 3.58 0 0 0 0.46 0.16v2.13h-3a1 1 0 0 0 0 2h3a2 2 0 0 0 2-2v-2.13a3.91 3.91 0 0 0 2.56-2 4 4 0 0 0-0.48-4.38 5.26 5.26 0 0 1 1.48-2.77 20.91 20.91 0 0 0 9.74 7.85 3 3 0 0 0-1.3 2.43v3h-1.25a2 2 0 0 0-1.92 1.45l-1.43 5a2 2 0 0 0 1.93 2.55h9.67a1 1 0 0 0 1-1v-11a2.79 2.79 0 0 0-0.2-1h1.2 1.2a2.79 2.79 0 0 0-0.2 1v11a1 1 0 0 0 1 1h9.67a2 2 0 0 0 1.93-2.55l-1.43-5a2 2 0 0 0-1.92-1.45h-1.25v-3a3 3 0 0 0-1.3-2.48 20.91 20.91 0 0 0 9.74-7.85 5.29 5.29 0 0 1 1.48 2.78 4 4 0 0 0 2.08 6.42v2.13a2 2 0 0 0 2 2h3a1 1 0 0 0 0-2h-3v-2.13l0.42-0.14a4 4 0 0 0 2.45-2.73h2.13v3a1 1 0 0 0 2 0v-3a2 2 0 0 0-2-2zm-48.22 1.91a2 2 0 0 1-1.69 1.09h-0.16a1.63 1.63 0 0 1-0.63-0.16 2 2 0 0 1-0.58-3.36 2.5 2.5 0 0 1 0.43-0.29 1.81 1.81 0 0 1 0.46-0.19 1.71 1.71 0 0 1 0.75 0l0.27 0.07a1.93 1.93 0 0 1 0.7 0.42h0.07a2 2 0 0 1 0.6 1.51 2 2 0 0 1-0.22 0.91zm42.9 1a1.65 1.65 0 0 1-0.68 0.09 2 2 0 0 1-1.78-1.1 1.9 1.9 0 0 1-0.22-0.9 2 2 0 0 1 0.6-1.43l0.07-0.06a1.8 1.8 0 0 1 1-0.47 1.94 1.94 0 0 1 0.76 0 2.69 2.69 0 0 1 0.45 0.16 1.91 1.91 0 0 1 0.45 0.31 2 2 0 0 1 0.67 1.49 2 2 0 0 1-1.32 1.87z"/>
    <path d="m21 25a7.57 7.57 0 0 1 0.13-0.83 5.07 5.07 0 0 1 0.17-0.67 0.85 0.85 0 0 1 0-0.17 0.64 0.64 0 0 1 0.06-0.18 2.83 2.83 0 0 1 0.19-0.51 0.78 0.78 0 0 1 0.05-0.14 6.13 6.13 0 0 1 0.27-0.58 7.76 7.76 0 0 1 0.46-0.79l0.35-0.51 0.09-0.12 0.08-0.09c0.14-0.18 0.28-0.35 0.44-0.52l0.55-0.55a9 9 0 0 1 3.38-1.93l0.29-0.09 0.28-0.07 0.41-0.09a6.49 6.49 0 0 1 0.77-0.11h0.06a9.27 9.27 0 0 1 1.72 0h0.06a6.49 6.49 0 0 1 0.77 0.11h0.41l0.28 0.07 0.29 0.09a9 9 0 0 1 3.44 2.02l0.61 0.61c0.09 0.1 0.19 0.21 0.28 0.33l0.22 0.27 0.05 0.07c0.12 0.16 0.24 0.33 0.35 0.51a7.76 7.76 0 0 1 0.46 0.79 6.13 6.13 0 0 1 0.27 0.58 0.78 0.78 0 0 1 0.05 0.14 2.83 2.83 0 0 1 0.19 0.51 0.64 0.64 0 0 1 0.06 0.18 0.85 0.85 0 0 1 0 0.17 5.07 5.07 0 0 1 0.17 0.67 7.57 7.57 0 0 1 0.13 0.83h12.16a20.7 20.7 0 0 0-1.44-6.69 19.58 19.58 0 0 0-1.93-3.73 21 21 0 0 0-35.21 0 19.42 19.42 0 0 0-1.94 3.74 20.7 20.7 0 0 0-1.48 6.68z"/>
    <path d="m30 19a7 7 0 1 0 7 7 7 7 0 0 0-7-7zm0 11a4 4 0 1 1 4-4 4 4 0 0 1-4 4z"/>
    <circle cx="29.98" cy="26" r="2"/>
   </g>
  </g>
 </g>
</svg>
