<?xml version="1.0" encoding="UTF-8"?>
<svg width="59.856mm" height="44.892mm" fill="#000000" version="1.1" viewBox="0 0 135.74 101.8" xmlns="http://www.w3.org/2000/svg" xmlns:cc="http://creativecommons.org/ns#" xmlns:dc="http://purl.org/dc/elements/1.1/" xmlns:rdf="http://www.w3.org/1999/02/22-rdf-syntax-ns#">
 <metadata>
  <rdf:RDF>
   <cc:Work rdf:about="">
    <dc:format>image/svg+xml</dc:format>
    <dc:type rdf:resource="http://purl.org/dc/dcmitype/StillImage"/>
    <dc:title>Robots - Solid - 002 - Wall E</dc:title>
   </cc:Work>
  </rdf:RDF>
 </metadata>
 <title>Robots - Solid - 002 - Wall E</title>
 <g transform="translate(16.624 16.886)" display="none">
  <g transform="matrix(.72642 0 0 .72642 13.145 9.5033)" display="inline" fill="#ccc">
   <rect x="-40.98" y="-36.327" width="186.86" height="140.14" fill="#ccc"/>
  </g>
 </g>
 <g transform="translate(15.42 17.157)">
  <g transform="matrix(1.5118 0 0 1.5118 7.0938 -11.61)" fill="#000" stroke-width=".66146">
   <path d="m59 11a1 1 0 0 0-1 1v3h-2.13a3.93 3.93 0 0 0-2.41-2.71 3.57 3.57 0 0 0-0.46-0.16v-2.13h3a1 1 0 0 0 0-2h-3a2 2 0 0 0-2 2v2.13a3.91 3.91 0 0 0-2.56 2 4 4 0 0 0 0.49 4.39 5.5 5.5 0 0 1-8.39 3.54 1 1 0 0 0-0.54-0.06v-3h2a2 2 0 0 0 2-2v-3a2 2 0 0 0-2-2h-2v-2a10 10 0 0 0-20 0v2h-2a2 2 0 0 0-2 2v3a2 2 0 0 0 2 2h2v3a1 1 0 0 0-0.54 0.16 5.49 5.49 0 0 1-8.39-3.56 4 4 0 0 0 0.49-4.36 3.92 3.92 0 0 0-2.56-2.11v-2.13a2 2 0 0 0-2-2h-3a1 1 0 0 0 0 2h3v2.13a4.12 4.12 0 0 0-0.42 0.14 4 4 0 0 0-2.45 2.73h-2.13v-3a1 1 0 0 0-2 0v3a2 2 0 0 0 2 2h2.13a3.92 3.92 0 0 0 0.87 1.68 11.53 11.53 0 0 0 11.47 10.32 11.28 11.28 0 0 0 2.53-0.28v7.28a2 2 0 0 0 2 2v6a3 3 0 0 0 0.77 2 3 3 0 0 0-0.77 2v3h-2a1 1 0 0 0-1 0.73l-2 7a1 1 0 0 0 0.16 0.87 1 1 0 0 0 0.8 0.4h26.04a1 1 0 0 0 0.8-0.4 1 1 0 0 0 0.16-0.87l-2-7a1 1 0 0 0-0.96-0.73h-2v-3a3 3 0 0 0-0.77-2 3 3 0 0 0 0.77-2v-6a2 2 0 0 0 2-2v-7.28a11.28 11.28 0 0 0 2.53 0.28 11.54 11.54 0 0 0 11.47-10.33 3.8 3.8 0 0 0 0.9-1.66h2.1a2 2 0 0 0 2-2v-3.01a1 1 0 0 0-1-1zm-7.53 8.94m-1.25-4.85a2 2 0 0 1 1.69-1.09h0.12a1.63 1.63 0 0 1 0.63 0.16 2 2 0 0 1 0.58 3.36 2.07 2.07 0 0 1-0.91 0.46 1.9 1.9 0 0 1-0.75 0l-0.27-0.07a1.93 1.93 0 0 1-0.7-0.42h-0.07a2 2 0 0 1-0.54-1.49 2 2 0 0 1 0.22-0.91zm-20.22 35.91h-1v-3a3 3 0 0 0-0.77-2 3 3 0 0 0 0.77-2v-6h2v6a3 3 0 0 0 0.77 2 3 3 0 0 0-0.77 2v3zm-6-36a1 1 0 0 1 0.08-0.38 1 1 0 0 1 1.11-0.6 0.6 0.6 0 0 1 0.19 0.06 0.56 0.56 0 0 1 0.17 0.09 1 1 0 0 1 0.16 0.12 1 1 0 0 1 0 1.42 1 1 0 0 1-0.16 0.12 0.56 0.56 0 0 1-0.17 0.09 0.6 0.6 0 0 1-0.19 0.06l-0.19 0.02a1 1 0 0 1-1-1zm10 0a1 1 0 1 1 2 0 1.35 1.35 0 0 1 0 0.2 0.64 0.64 0 0 1-0.06 0.18 0.55 0.55 0 0 1-0.09 0.17l-0.12 0.16a1 1 0 0 1-1.42 0 1 1 0 0 1-0.12-0.16 0.55 0.55 0 0 1-0.09-0.17 0.64 0.64 0 0 1-0.1-0.18 0.68 0.68 0 0 1 0-0.2zm4 5v2h-16v-2zm4-6v3h-2v-3zm-12-12a8 8 0 0 1 7.94 7h-15.88a8 8 0 0 1 7.94-7zm-12 15v-3h2v3zm-10.68-2.87a1.65 1.65 0 0 1 0.68-0.13 2 2 0 0 1 1.78 1.1 1.9 1.9 0 0 1 0.22 0.9 2 2 0 0 1-0.53 1.35l-0.11 0.09a2.15 2.15 0 0 1-0.64 0.4 0.83 0.83 0 0 1-0.21 0.06h-0.12a1.67 1.67 0 0 1-0.55 0h-0.24a0.86 0.86 0 0 1-0.23-0.06 2.14 2.14 0 0 1-0.69-0.41 2 2 0 0 1-0.68-1.43 2 2 0 0 1 1.32-1.87zm12.43 38.87h9.25v5h-10.67zm21.92 5h-10.67v-5h9.25z" fill="#000" stroke-width=".66146"/>
  </g>
 </g>
</svg>
