<?xml version="1.0" encoding="UTF-8"?>
<svg width="59.856mm" height="44.892mm" fill="#000000" version="1.1" viewBox="0 0 135.74 101.8" xmlns="http://www.w3.org/2000/svg" xmlns:cc="http://creativecommons.org/ns#" xmlns:dc="http://purl.org/dc/elements/1.1/" xmlns:rdf="http://www.w3.org/1999/02/22-rdf-syntax-ns#">
 <metadata>
  <rdf:RDF>
   <cc:Work rdf:about="">
    <dc:format>image/svg+xml</dc:format>
    <dc:type rdf:resource="http://purl.org/dc/dcmitype/StillImage"/>
    <dc:title>Robots - Solid - 002 - Wall E</dc:title>
   </cc:Work>
  </rdf:RDF>
 </metadata>
 <title>Robots - Solid - 002 - Wall E</title>
 <g transform="translate(16.624 16.886)" display="none">
  <g transform="matrix(.72642 0 0 .72642 13.145 9.5033)" display="inline" fill="#ccc">
   <rect x="-40.98" y="-36.327" width="186.86" height="140.14" fill="#ccc"/>
  </g>
 </g>
 <g transform="translate(15.42 17.157)">
  <g transform="matrix(1.25 0 0 1.25 14.948 -3.7833)" fill="#000" stroke-width=".8">
   <g fill="#000" stroke-width=".8">
    <path d="m30 19a6.5 6.5 0 1 0-6.5-6.5 6.51 6.51 0 0 0 6.5 6.5zm-2-7h4a1 1 0 0 1 0 2h-4a1 1 0 0 1 0-2z"/>
    <path d="m59.17 57.11-8-16a2 2 0 0 0-1.79-1.11h-5.38a2 2 0 0 0-2 2v1h-7v-5.28a11.28 11.28 0 0 0 2.53 0.28 11.54 11.54 0 0 0 11.47-10.33 3.94 3.94 0 0 0 0.9-1.67h2.1a2 2 0 0 0 2-2v-3a1 1 0 0 0-2 0v3h-2.13a3.93 3.93 0 0 0-2.41-2.71 3.57 3.57 0 0 0-0.46-0.16v-2.13h3a1 1 0 0 0 0-2h-3a2 2 0 0 0-2 2v2.13a3.91 3.91 0 0 0-2.56 2 4 4 0 0 0 0.49 4.38 5.48 5.48 0 0 1-7.93 3.86v-7.37a12.5 12.5 0 1 0-10 0v7.42a5.48 5.48 0 0 1-7.93-3.82 4 4 0 0 0 0.49-4.36 3.92 3.92 0 0 0-2.56-2.11v-2.13a2 2 0 0 0-2-2h-3a1 1 0 0 0 0 2h3v2.13a4.13 4.13 0 0 0-0.42 0.14 4 4 0 0 0-2.45 2.73h-2.13v-3a1 1 0 0 0-2 0v3a2 2 0 0 0 2 2h2.13a3.88 3.88 0 0 0 0.9 1.67 11.53 11.53 0 0 0 11.44 10.33 11.28 11.28 0 0 0 2.53-0.28v5.28h-7v-1a2 2 0 0 0-2-2h-5.38a2 2 0 0 0-1.79 1.11l-8 16a2 2 0 0 0 1.79 2.89h13.38a2 2 0 0 0 2-2v-1h24v1a2 2 0 0 0 2 2h13.38a2 2 0 0 0 1.79-2.89zm-7.17-2.11h-5a1 1 0 0 1 0-2h5a1 1 0 0 1 0 2zm-4-8h-1a1 1 0 0 1 0-2h1a1 1 0 0 1 0 2zm2 2a1 1 0 0 1 0 2h-3a1 1 0 0 1 0-2zm-20-45a8.5 8.5 0 1 1-8.5 8.5 8.51 8.51 0 0 1 8.5-8.5zm14.22 20.09a2 2 0 0 1 1.71-1.09h0.07a1.82 1.82 0 0 1 0.67 0.16 2 2 0 0 1 0.58 3.36 2.07 2.07 0 0 1-0.91 0.46 1.9 1.9 0 0 1-0.75 0l-0.27-0.07a1.93 1.93 0 0 1-0.7-0.42h-0.07a2 2 0 0 1-0.55-1.49 2 2 0 0 1 0.22-0.91zm-30.9-1a1.65 1.65 0 0 1 0.68-0.09 2 2 0 0 1 1.78 1.1 1.9 1.9 0 0 1 0.22 0.9 2 2 0 0 1-0.53 1.35l-0.11 0.09-0.17 0.14h-0.07l-0.11 0.06-0.23 0.11-0.25 0.07h-0.08a1.84 1.84 0 0 1-0.74 0 2 2 0 0 1-1.71-1.82 2 2 0 0 1 1.32-1.87zm-3.32 25.91h3a1 1 0 0 1 0 2h-3a1 1 0 0 1 0-2zm-2 4h5a1 1 0 0 1 0 2h-5a1 1 0 0 1 0-2zm5-6h-1a1 1 0 0 1 0-2h1a1 1 0 0 1 0 2z"/>
   </g>
  </g>
 </g>
</svg>
