<?xml version="1.0" encoding="UTF-8"?>
<svg width="59.856mm" height="44.892mm" fill="#000000" version="1.1" viewBox="0 0 135.74 101.8" xmlns="http://www.w3.org/2000/svg" xmlns:cc="http://creativecommons.org/ns#" xmlns:dc="http://purl.org/dc/elements/1.1/" xmlns:rdf="http://www.w3.org/1999/02/22-rdf-syntax-ns#">
 <metadata>
  <rdf:RDF>
   <cc:Work rdf:about="">
    <dc:format>image/svg+xml</dc:format>
    <dc:type rdf:resource="http://purl.org/dc/dcmitype/StillImage"/>
    <dc:title>Robots - Solid - 002 - Wall E</dc:title>
   </cc:Work>
  </rdf:RDF>
 </metadata>
 <title>Robots - Solid - 002 - Wall E</title>
 <g transform="translate(16.624 16.886)" display="none">
  <g transform="matrix(.72642 0 0 .72642 13.145 9.5033)" display="inline" fill="#ccc">
   <rect x="-40.98" y="-36.327" width="186.86" height="140.14" fill="#ccc"/>
  </g>
 </g>
 <g transform="translate(15.42 17.157)">
  <g transform="matrix(1.3323 0 0 1.3323 12.478 -6.5113)" fill="#000" stroke-width=".75056">
   <path d="m50.48 31.83-6.57 2.26-1-2.83 6.6-2.26 1 2.82zm-2.58-7.56 1 2.83-6.61 2.27-1-2.83 1.17-0.4zm-14.9-11.4v-4.87l3.5 2zm8.71-10.06a3.5 3.5 0 1 1-3.66 3.34 3.5 3.5 0 0 1 3.66-3.34zm-13.93-0.43h-1zm-9.49 0.44h0.17a3.51 3.51 0 1 1-0.17 0zm5.22 7.18 3.49-2v4.87zm3.49 9h6v2h-6zm-1 4h9v10.48h-10v-10.48zm-13.89 1.27 5.16 1.73 1.46 0.5-1 2.82-5.69-1.95-0.9-0.31zm-1.6 4.73 6.6 2.26-1 2.84-6.6-2.26zm12.49 23h-6v-5h6zm14 0v-5h6v5zm-25 4h-3.33a1 1 0 0 1 0-2h3.33a1 1 0 0 1 0 2zm0-4h-5a1 1 0 0 1 0-2h5a1 1 0 0 1 0 2zm0-4h-5a1 1 0 0 1 0-2h5a1 1 0 0 1 0 2zm0-4h-3.33a1 1 0 0 1 0-2h3.33a1 1 0 0 1 0 2zm48-3.5a2.5 2.5 0 0 0-2.5-2.5h-12.5v-2.17l6.12-2.1a2 2 0 0 0 1.26-2.55l-1-2.8a2 2 0 0 0-0.59-0.89 2 2 0 0 0 0-1l-1-2.84a2 2 0 0 0-1-1.15 2 2 0 0 0-1.53-0.09l-2.26 0.73v-0.14a2 2 0 0 0-2-2h-8v-2a2 2 0 0 0-2-2v-1.53l5.35-4.47 4.65 2.66a1.88 1.88 0 0 0 0.9 0.26l1.52 0.07h0.7a6.41 6.41 0 0 0 5.88-6.2 6.43 6.43 0 0 0-5.27-6.71 5.48 5.48 0 0 0-0.73-0.08l-4.2-0.18-8.49-0.39a2 2 0 0 0-2.09 1.9l-0.15 3.28a1.75 1.75 0 0 0 0 0.4h-2.18a1.81 1.81 0 0 0 0-0.4l-0.15-3.28a2 2 0 0 0-2.05-1.9l-8.49 0.38-4.2 0.19a4.87 4.87 0 0 0-0.7 0.07 6.43 6.43 0 0 0-5.3 6.72 6.41 6.41 0 0 0 5.87 6.21h0.72l1.52-0.07a1.88 1.88 0 0 0 0.9-0.26l4.65-2.67 5.34 4.47v1.53a2 2 0 0 0-2 2v2h-8a2 2 0 0 0-2 2v0.14l-2.25-0.77a2 2 0 0 0-2.54 1.26l-1 2.83a1.94 1.94 0 0 0-0.07 1 2 2 0 0 0-0.58 0.85l-1 2.85a2 2 0 0 0 1.26 2.53l6.18 2.14v2.17h-12.5a2.5 2.5 0 0 0-2.5 2.5v1a2.53 2.53 0 0 0 0.5 1.5 2.53 2.53 0 0 0-0.5 1.5v1a2.53 2.53 0 0 0 0.5 1.5 2.53 2.53 0 0 0-0.5 1.5v1a2.53 2.53 0 0 0 0.5 1.5 2.53 2.53 0 0 0-0.5 1.5v1a2.53 2.53 0 0 0 0.5 1.5 2.53 2.53 0 0 0-0.5 1.5v1a2.5 2.5 0 0 0 2.5 2.5h12.5a2 2 0 0 0 2-2v-4h6a2 2 0 0 0 2-2v-5h10v5a2 2 0 0 0 2 2h6v4a2 2 0 0 0 2 2h12.5a2.5 2.5 0 0 0 2.5-2.5v-1a2.53 2.53 0 0 0-0.5-1.5 2.53 2.53 0 0 0 0.5-1.5v-1a2.53 2.53 0 0 0-0.5-1.5 2.53 2.53 0 0 0 0.5-1.5v-1a2.53 2.53 0 0 0-0.5-1.5 2.53 2.53 0 0 0 0.5-1.5v-1a2.53 2.53 0 0 0-0.5-1.5 2.53 2.53 0 0 0 0.5-1.5zm-12 1.5h3.33a1 1 0 0 1 0 2h-3.33a1 1 0 0 1 0-2zm3.33 14h-3.33a1 1 0 0 1 0-2h3.33a1 1 0 0 1 0 2zm1.67-4h-5a1 1 0 0 1 0-2h5a1 1 0 0 1 0 2zm0-4h-5a1 1 0 0 1 0-2h5a1 1 0 0 1 0 2z" fill="#000" stroke-width=".75056"/>
  </g>
 </g>
</svg>
