<?xml version="1.0" encoding="UTF-8" standalone="no"?>
<svg
   height="8.5in"
   width="11in"
   fill="#000000"
   version="1.1"
   x="0px"
   y="0px"
   viewBox="0 0 1056.0001 816.00008"
   enable-background="new 0 0 100 100"
   xml:space="preserve"
   id="svg16"
   sodipodi:docname="poster.svg"
   inkscape:version="1.1 (1:1.1+202105261517+ce6663b3b7)"
   inkscape:export-filename="/home/jtebert/google-drive/Projects/Programming/html/robo-scavenge/static/favicon.png"
   inkscape:export-xdpi="768"
   inkscape:export-ydpi="768"
   xmlns:inkscape="http://www.inkscape.org/namespaces/inkscape"
   xmlns:sodipodi="http://sodipodi.sourceforge.net/DTD/sodipodi-0.dtd"
   xmlns:xlink="http://www.w3.org/1999/xlink"
   xmlns="http://www.w3.org/2000/svg"
   xmlns:svg="http://www.w3.org/2000/svg"><defs
     id="defs20" /><sodipodi:namedview
     id="namedview18"
     pagecolor="#ffffff"
     bordercolor="#666666"
     borderopacity="1.0"
     inkscape:pageshadow="2"
     inkscape:pageopacity="0.0"
     inkscape:pagecheckerboard="0"
     showgrid="false"
     inkscape:snap-bbox="true"
     inkscape:snap-smooth-nodes="true"
     inkscape:bbox-paths="false"
     inkscape:bbox-nodes="false"
     fit-margin-top="0"
     fit-margin-left="0"
     fit-margin-right="0"
     fit-margin-bottom="0"
     inkscape:zoom="0.96"
     inkscape:cx="620.83333"
     inkscape:cy="337.5"
     inkscape:window-width="1920"
     inkscape:window-height="999"
     inkscape:window-x="0"
     inkscape:window-y="402"
     inkscape:window-maximized="1"
     inkscape:current-layer="layer2"
     units="in"
     inkscape:document-units="mm"
     inkscape:snap-page="true"
     inkscape:snap-global="true"><inkscape:grid
       type="xygrid"
       id="grid896"
       empspacing="4"
       spacingx="2"
       spacingy="2"
       originx="-112"
       originy="-24" /></sodipodi:namedview><g
     display="none"
     id="g4"
     transform="translate(-112,-24)"><rect
       x="-627.87903"
       y="-45.154999"
       display="inline"
       fill="#000000"
       width="1286.936"
       height="912.422"
       id="rect2" /></g><g
     inkscape:groupmode="layer"
     id="layer1"
     inkscape:label="working"
     style="display:none"><rect
       style="fill:#00c9bb;fill-opacity:1;stroke:none;stroke-width:0.2;stroke-linecap:round;stroke-linejoin:round;stroke-miterlimit:4;stroke-dasharray:none;stroke-opacity:0"
       id="rect20887"
       width="12"
       height="20"
       x="50"
       y="28"
       rx="4"
       ry="4" /><path
       style="fill:#00c9bb;fill-opacity:1;fill-rule:evenodd;stroke:none;stroke-width:0.2;stroke-linecap:butt;stroke-linejoin:miter;stroke-miterlimit:4;stroke-dasharray:none;stroke-opacity:0"
       d="M 10,20 H 54 V 56 H 10 Z"
       id="path1337" /><path
       style="fill:#eeeeee;fill-opacity:1;fill-rule:evenodd;stroke:none;stroke-width:0.2;stroke-linecap:butt;stroke-linejoin:miter;stroke-miterlimit:4;stroke-dasharray:none;stroke-opacity:0"
       d="M 44,24 H 14 v 28 h 30 z"
       id="path1396" /><path
       style="fill:#00c9bb;fill-opacity:1;stroke:none;stroke-width:0.2;stroke-linecap:round;stroke-linejoin:round;stroke-miterlimit:4;stroke-dasharray:none;stroke-opacity:0"
       d="m 30,20 v -6 h 4 v 6 z"
       id="path1813" /><circle
       style="fill:#00c9bb;fill-opacity:1;stroke:none;stroke-width:0.2;stroke-linecap:round;stroke-linejoin:round;stroke-miterlimit:4;stroke-dasharray:none"
       id="path1983"
       cx="32"
       cy="10"
       r="6" /><circle
       style="fill:#00c9bb;fill-opacity:1;stroke:none;stroke-width:0.2;stroke-linecap:round;stroke-linejoin:round;stroke-miterlimit:4;stroke-dasharray:none;stroke-opacity:0"
       id="path2087"
       cx="35"
       cy="35"
       r="3" /><circle
       style="fill:#00c9bb;fill-opacity:1;stroke:none;stroke-width:0.2;stroke-linecap:round;stroke-linejoin:round;stroke-miterlimit:4;stroke-dasharray:none;stroke-opacity:0"
       id="path2087-6"
       cx="21"
       cy="35"
       r="3" /><path
       style="fill:#00c9bb;fill-opacity:1;stroke:none;stroke-width:0.2;stroke-linecap:round;stroke-linejoin:round;stroke-miterlimit:4;stroke-dasharray:none;stroke-opacity:0"
       id="path2427"
       sodipodi:type="arc"
       sodipodi:cx="28"
       sodipodi:cy="40"
       sodipodi:rx="7.9999995"
       sodipodi:ry="7.9999995"
       sodipodi:start="0"
       sodipodi:end="3.1415927"
       sodipodi:open="true"
       sodipodi:arc-type="chord"
       d="m 36,40 a 7.9999995,7.9999995 0 0 1 -4,6.928203 7.9999995,7.9999995 0 0 1 -8,0 A 7.9999995,7.9999995 0 0 1 20,40 Z" /><rect
       style="fill:#eeeeee;fill-opacity:1;stroke:none;stroke-width:0.2;stroke-linecap:round;stroke-linejoin:round;stroke-miterlimit:4;stroke-dasharray:none;stroke-opacity:0"
       id="rect24564"
       width="4"
       height="12"
       x="54"
       y="32" /><rect
       style="fill:#00c9bb;fill-opacity:1;stroke:none;stroke-width:0.2;stroke-linecap:round;stroke-linejoin:round;stroke-miterlimit:4;stroke-dasharray:none;stroke-opacity:0"
       id="rect20887-7"
       width="12"
       height="20"
       x="2"
       y="28"
       rx="4"
       ry="4" /><rect
       style="fill:#eeeeee;fill-opacity:1;stroke:none;stroke-width:0.2;stroke-linecap:round;stroke-linejoin:round;stroke-miterlimit:4;stroke-dasharray:none;stroke-opacity:0"
       id="rect24564-5"
       width="4"
       height="12"
       x="6"
       y="32" /></g><g
     inkscape:groupmode="layer"
     id="layer2"
     inkscape:label="output"
     style="display:inline"><g
       id="g93226"><rect
         style="fill:none;fill-opacity:1;stroke:#9e9e9e;stroke-width:0.57826778;stroke-linecap:round;stroke-linejoin:round;stroke-miterlimit:4;stroke-dasharray:none;stroke-opacity:1"
         id="rect92030"
         width="408.00003"
         height="528.00006"
         x="-408.00003"
         y="0"
         transform="rotate(-90)" /><path
         id="rect28613"
         style="fill:#00c9bb;stroke-width:0.200001;stroke-linecap:round;stroke-linejoin:round;stroke-opacity:0"
         d="m 255.71995,36 a 14.155797,14.155797 0 0 0 -14.15578,14.15583 14.155797,14.155797 0 0 0 9.43718,13.307906 v 10.285078 h -47.18599 v 18.874377 h -9.43717 c -5.22822,0 -9.43721,4.20899 -9.43721,9.437199 v 28.31158 c 0,5.22821 4.20899,9.4372 9.43721,9.4372 h 9.43717 v 18.87441 h 103.80918 v -18.87441 h 9.43719 c 5.22824,0 9.43723,-4.20899 9.43723,-9.4372 v -28.31158 c 0,-5.228209 -4.20899,-9.437199 -9.43723,-9.437199 h -9.43719 V 73.748814 h -47.186 V 63.463736 A 14.155797,14.155797 0 0 0 269.87574,50.15583 14.155797,14.155797 0 0 0 255.71995,36 Z m -42.46739,47.185985 h 70.77897 v 66.060385 h -70.77897 z m -18.87437,18.874405 h 9.43717 v 28.31158 h -9.43717 z m 35.38948,0 a 7.0778981,7.0778981 0 0 0 -7.07791,7.0779 7.0778981,7.0778981 0 0 0 7.07791,7.07788 7.0778981,7.0778981 0 0 0 7.07788,-7.07788 7.0778981,7.0778981 0 0 0 -7.07788,-7.0779 z m 33.0302,0 a 7.0778981,7.0778981 0 0 0 -7.07792,7.0779 7.0778981,7.0778981 0 0 0 7.07792,7.07788 7.0778981,7.0778981 0 0 0 7.07787,-7.07788 7.0778981,7.0778981 0 0 0 -7.07787,-7.0779 z m 44.82667,0 h 9.43719 v 28.31158 h -9.43719 z m -80.21619,18.87438 a 18.874395,18.874395 0 0 0 9.4372,16.3446 18.874395,18.874395 0 0 0 18.8744,0 18.874395,18.874395 0 0 0 9.4372,-16.3446 z" /><text
         xml:space="preserve"
         style="font-style:normal;font-variant:normal;font-weight:normal;font-stretch:normal;font-size:52.6351px;line-height:100%;font-family:Montserrat;-inkscape-font-specification:Montserrat;letter-spacing:0px;word-spacing:0px;fill:#000000;fill-opacity:1;stroke:none;stroke-width:0.999999px;stroke-linecap:butt;stroke-linejoin:miter;stroke-opacity:1"
         x="307.02594"
         y="204.19528"
         id="text29676"><tspan
           sodipodi:role="line"
           id="tspan29674"
           x="307.02594"
           y="204.19528"
           style="font-style:normal;font-variant:normal;font-weight:300;font-stretch:normal;font-size:31.3275px;font-family:Roboto;-inkscape-font-specification:'Roboto Light';text-align:end;text-anchor:end;stroke-width:0.999999px"
           dy="3.8369439">JOIN THE</tspan><tspan
           sodipodi:role="line"
           x="307.02594"
           y="264.21173"
           style="font-style:normal;font-variant:normal;font-weight:bold;font-stretch:normal;font-size:56.3897px;font-family:Roboto;-inkscape-font-specification:'Roboto Bold';text-align:end;text-anchor:end;stroke-width:0.999999px"
           id="tspan67929"><tspan
             dy="-6.9562435e-07"
             id="tspan67927"
             style="font-style:normal;font-variant:normal;font-weight:bold;font-stretch:normal;font-size:56.3897px;font-family:Roboto;-inkscape-font-specification:'Roboto Bold';text-align:end;text-anchor:end;stroke-width:0.999999px">Robot</tspan></tspan><tspan
           sodipodi:role="line"
           x="307.02594"
           y="317.9751"
           style="font-style:normal;font-variant:normal;font-weight:bold;font-stretch:normal;font-size:56.3897px;font-family:Roboto;-inkscape-font-specification:'Roboto Bold';text-align:end;text-anchor:end;stroke-width:0.999999px"
           id="tspan81369"><tspan
             dy="-4.166667"
             style="font-style:normal;font-variant:normal;font-weight:bold;font-stretch:normal;font-size:56.3897px;font-family:Roboto;-inkscape-font-specification:'Roboto Bold';text-align:end;text-anchor:end;stroke-width:0.999999px"
             id="tspan81371">Scavenger</tspan></tspan><tspan
           sodipodi:role="line"
           x="307.02594"
           y="371.73849"
           style="font-style:normal;font-variant:normal;font-weight:bold;font-stretch:normal;font-size:56.3897px;font-family:Roboto;-inkscape-font-specification:'Roboto Bold';text-align:end;text-anchor:end;stroke-width:0.999999px"
           id="tspan80829">Hunt</tspan></text><path
         id="use7-3"
         style="fill:#000000;stroke-width:0.999998"
         d="m 334.57057,214.57055 v 5.43857 5.43858 5.43857 5.43857 5.43858 5.43857 5.43857 h 5.43857 5.43857 5.43858 5.43857 5.43857 5.43858 5.43858 v -5.43857 -5.43857 -5.43858 -5.43857 -5.43857 -5.43858 -5.43857 h -5.43858 -5.43858 -5.43857 -5.43857 -5.43858 -5.43857 z m 48.94717,0 v 5.43857 h 5.43857 5.43857 v 5.43858 h -5.43857 -5.43857 v 5.43857 h 5.43857 v 5.43857 5.43858 h -5.43857 v 5.43857 h 5.43857 v 5.43857 h 5.43857 v -5.43857 -5.43857 -5.43858 h 5.43857 v -5.43857 -5.43857 h 5.43858 v -5.43858 h -5.43858 v -5.43857 h -5.43857 -5.43857 z m 21.75429,5.43857 h 5.43857 5.43857 v 5.43858 h 5.43858 v -5.43858 -5.43857 h -5.43858 -5.43857 -5.43857 z m 16.31572,5.43858 v 5.43857 h 5.43856 v -5.43857 z m 5.43856,5.43857 v 5.43857 h 5.43858 v -5.43857 z m 5.43858,5.43857 v 5.43858 h 5.43857 5.43857 5.43858 v -5.43858 -5.43857 h -5.43858 -5.43857 v 5.43857 z m -10.87714,-5.43857 h -5.43858 v -5.43857 h -5.43857 v 5.43857 5.43857 h -5.43857 -5.43858 v 5.43858 h 5.43858 v 5.43857 h 5.43857 v 5.43857 h 5.43857 v -5.43857 -5.43857 h 5.43858 v -5.43858 z m 0,10.87715 v 5.43857 5.43857 h 5.43856 v -5.43857 -5.43857 z m -10.87715,10.87714 h -5.43857 v -5.43857 h -5.43858 v 5.43857 5.43858 5.43857 h 5.43858 v -5.43857 h 5.43857 z m 0,5.43858 v 5.43857 5.43857 h 5.43857 v -5.43857 h 5.43858 v -5.43857 h -5.43858 z m -21.75429,-5.43858 h -5.43857 v 5.43858 5.43857 h 5.43857 v 5.43857 h 5.43857 v -5.43857 -5.43857 h -5.43857 z m 5.43857,16.31572 v 5.43857 h -5.43857 v 5.43857 h -5.43857 -5.43858 v -5.43857 -5.43857 h -5.43857 -5.43858 v 5.43857 h 5.43858 v 5.43857 h -5.43858 v 5.43859 h 5.43858 v 5.43857 h -5.43858 v 5.43857 h 5.43858 v 5.43858 h -5.43858 v -5.43858 h -5.43858 v 5.43858 5.43856 h 5.43858 5.43858 5.43857 v -5.43856 -5.43858 h 5.43858 5.43857 v -5.43857 h -5.43857 -5.43858 v -5.43857 h 5.43858 5.43857 v 5.43857 h 5.43857 v -5.43857 -5.43859 h 5.43857 v -5.43857 h 5.43858 v -5.43857 h -5.43858 z m -5.43857,27.19287 v 5.43858 h 5.43857 v -5.43858 z m -27.19288,0 v -5.43857 h -5.43857 v -5.43857 h -5.43857 v 5.43857 5.43857 h 5.43857 z m -5.43857,-10.87714 h 5.43857 v -5.43859 h 5.43858 v -5.43857 h -5.43858 v -5.43857 -5.43857 h -5.43857 v 5.43857 5.43857 h -5.43857 v 5.43857 h 5.43857 z m 5.43857,-21.7543 h 5.43858 5.43858 5.43857 v -5.43857 h -5.43857 -5.43858 -5.43858 z m 16.31573,0 v 5.43857 h 5.43858 v -5.43857 z m 5.43858,5.43857 v 5.43857 h 5.43857 v -5.43857 z m 0,-16.31572 v -5.43857 h -5.43858 v 5.43857 z m 0,-10.87714 v -5.43858 -5.43857 h -5.43858 v 5.43857 5.43858 z m 43.50857,-27.19287 v 5.43857 h 5.43858 v 5.43858 h 5.43857 v -5.43858 -5.43857 h -5.43857 z m 27.19288,0 v 5.43857 5.43858 5.43857 5.43857 5.43858 5.43857 5.43857 h 5.43856 5.43858 5.43858 5.43857 5.43858 5.43856 5.43858 v -5.43857 -5.43857 -5.43858 -5.43857 -5.43857 -5.43858 -5.43857 h -5.43858 -5.43856 -5.43858 -5.43857 -5.43858 -5.43858 z m -114.21005,5.43857 h 5.43857 5.43858 5.43857 5.43857 5.43858 v 5.43858 5.43857 5.43857 5.43858 5.43857 h -5.43858 -5.43857 -5.43857 -5.43858 -5.43857 v -5.43857 -5.43858 -5.43857 -5.43857 z m 103.33289,0 v 5.43858 h 5.43858 v -5.43858 z m 16.31572,0 h 5.43858 5.43858 5.43857 5.43858 5.43856 v 5.43858 5.43857 5.43857 5.43858 5.43857 h -5.43856 -5.43858 -5.43857 -5.43858 -5.43858 v -5.43857 -5.43858 -5.43857 -5.43857 z m -114.21004,5.43858 v 5.43857 5.43857 5.43858 h 5.43858 5.43857 5.43857 v -5.43858 -5.43857 -5.43857 h -5.43857 -5.43857 z m 119.64862,0 v 5.43857 5.43857 5.43858 h 5.43858 5.43857 5.43858 v -5.43858 -5.43857 -5.43857 h -5.43858 -5.43857 z m -32.63144,21.75429 v 5.43857 h 5.43857 v -5.43857 z m 10.87714,0 v 5.43857 5.43858 h 5.43858 v -5.43858 -5.43857 z m 0,10.87715 h -5.43857 v 5.43857 h -5.43857 v 5.43857 h -5.43858 v 5.43857 h 5.43858 v 5.43857 h 5.43857 v -5.43857 -5.43857 h 5.43857 v -5.43857 z m 0,10.87714 v 5.43857 5.43857 h 5.43858 v -5.43857 -5.43857 z m 5.43858,0 h 5.43858 v -5.43857 h -5.43858 z m -5.43858,10.87714 h -5.43857 v 5.43859 h -5.43857 v 5.43857 h 5.43857 5.43857 5.43858 v -5.43857 h -5.43858 z m 5.43858,10.87716 v 5.43857 h 5.43858 v 5.43858 h 5.43856 v -5.43858 -5.43857 h 5.43858 5.43858 v -5.43857 h -5.43858 v -5.43859 -5.43857 -5.43857 h 5.43858 v -5.43857 h 5.43857 v -5.43857 h -5.43857 -5.43858 v 5.43857 h -5.43858 v 5.43857 5.43857 5.43857 h -5.43856 v 5.43859 5.43857 z m 27.19287,-27.19287 v 5.43857 h 5.43858 5.43856 v -5.43857 h -5.43856 z m -5.43857,27.19287 v 5.43857 h 5.43857 v 5.43858 h -5.43857 v 5.43856 h 5.43857 v 5.43858 h 5.43858 5.43856 v 5.43857 h 5.43858 v -5.43857 -5.43858 h -5.43858 -5.43856 v -5.43856 -5.43858 -5.43857 h -5.43858 z m 10.87715,0 h 5.43856 5.43858 v -5.43857 -5.43859 h -5.43858 v 5.43859 h -5.43856 z m -5.43858,21.75429 h -5.43857 v 5.43857 h 5.43857 z m -5.43857,0 v -5.43858 h -5.43858 -5.43858 -5.43856 -5.43858 -5.43858 v -5.43856 h 5.43858 v -5.43858 h -5.43858 -5.43857 v 5.43858 5.43856 5.43858 h -5.43857 v 5.43857 5.43858 h 5.43857 v 5.43857 h 5.43857 v 5.43858 h -5.43857 v 5.43856 h 5.43857 v 5.43858 h -5.43857 v -5.43858 h -5.43857 v 5.43858 5.43857 h -5.43858 v -5.43857 -5.43858 -5.43856 h -5.43856 v -5.43858 h -5.43858 v 5.43858 h -5.43857 v -5.43858 h -5.43857 -5.43858 v 5.43858 h 5.43858 v 5.43856 h -5.43858 v 5.43858 h -5.43857 -5.43857 -5.43857 v 5.43857 5.43857 5.43858 h 5.43857 5.43857 v 5.43857 h -5.43857 -5.43857 v -5.43857 h -5.43858 v 5.43857 5.43857 h 5.43858 5.43857 5.43857 5.43857 v -5.43857 -5.43857 h 5.43858 v -5.43858 h -5.43858 -5.43857 -5.43857 v -5.43857 h 5.43857 5.43857 5.43858 5.43857 v -5.43857 -5.43858 h 5.43857 v 5.43858 h 5.43858 v 5.43857 h -5.43858 v 5.43857 5.43858 5.43857 5.43857 h 5.43858 v -5.43857 h 5.43856 v -5.43857 h 5.43858 v -5.43858 h 5.43857 v -5.43857 h 5.43857 5.43858 v 5.43857 5.43858 5.43857 5.43857 h 5.43858 5.43856 v -5.43857 h -5.43856 v -5.43857 h 5.43856 5.43858 5.43858 v 5.43857 h -5.43858 v 5.43857 h 5.43858 5.43857 5.43858 v -5.43857 -5.43857 h 5.43856 v -5.43858 h -5.43856 v -5.43857 h -5.43858 v -5.43857 h -5.43857 v -5.43858 h 5.43857 5.43858 v -5.43856 h -5.43858 v -5.43858 h -5.43857 v -5.43857 h -5.43858 v -5.43858 h -5.43858 v 5.43858 h -5.43856 v -5.43858 h -5.43858 v -5.43857 h 5.43858 v 5.43857 h 5.43856 v -5.43857 h 5.43858 z m 5.43857,16.31572 h 5.43858 5.43856 5.43858 v -5.43857 h -5.43858 -5.43856 -5.43858 z m 5.43858,10.87714 v 5.43858 5.43857 h 5.43856 v 5.43857 h 5.43858 v -5.43857 -5.43857 h -5.43858 v -5.43858 z m 5.43856,21.7543 v 5.43857 h 5.43858 v -5.43857 z m -48.94716,-5.43858 v 5.43858 h -5.43857 v 5.43857 h 5.43857 v 5.43857 h 5.43857 v -5.43857 -5.43857 -5.43858 z m -5.43857,10.87715 h -5.43858 v 5.43857 h 5.43858 z m -48.94715,-21.75429 v -5.43858 -5.43856 h 5.43857 v 5.43856 h 5.43857 v -5.43856 -5.43858 h 5.43857 v -5.43857 -5.43858 h -5.43857 v 5.43858 h -5.43857 v 5.43857 h -5.43857 v -5.43857 -5.43858 -5.43857 h -5.43858 v 5.43857 5.43858 h -5.43857 -5.43858 v -5.43858 h -5.43858 -5.43857 -5.43857 v 5.43858 h 5.43857 v 5.43857 h 5.43857 5.43858 5.43858 5.43857 v 5.43858 5.43856 5.43858 z m -32.63145,-27.19287 v -5.43857 -5.43858 h -5.43858 v 5.43858 5.43857 z m -5.43858,0 h -5.43857 v 5.43858 5.43857 h 5.43857 v -5.43857 z m 5.43858,-10.87715 h 5.43857 v -5.43856 h -5.43857 z m 16.31572,10.87715 h 5.43858 v -5.43857 h -5.43858 z m 32.63144,0 h 5.43858 5.43857 v 5.43858 h 5.43857 v -5.43858 h 5.43858 v -5.43857 -5.43858 h -5.43858 v 5.43858 h -5.43857 -5.43857 -5.43858 z m 16.31572,-10.87715 v -5.43856 h 5.43858 v -5.43858 h 5.43856 v -5.43857 h -5.43856 -5.43858 v -5.43857 -5.43859 h 5.43858 v 5.43859 h 5.43856 v -5.43859 -5.43857 h -5.43856 -5.43858 -5.43857 v 5.43857 h -5.43857 v 5.43859 h -5.43858 v 5.43857 h 5.43858 v 5.43857 h -5.43858 v 5.43858 5.43856 h 5.43858 v -5.43856 h 5.43857 v 5.43856 z m 5.43858,10.87715 v 5.43858 h 5.43856 v -5.43858 z m 5.43856,5.43858 v 5.43857 h 5.43858 v -5.43857 z m 43.5086,-21.75429 v -5.43858 h -5.43858 v 5.43858 z m -38.07002,-38.07002 v -5.43857 h -5.43858 v 5.43857 z m -97.89432,-5.43857 v 5.43857 5.43857 h 5.43857 v -5.43857 h 5.43857 v -5.43857 h -5.43857 z m 10.87714,5.43857 v 5.43857 h 5.43858 v -5.43857 z m 0,5.43857 h -5.43857 v 5.43857 h 5.43857 z m -5.43857,5.43857 h -5.43857 v 5.43857 h 5.43857 z m 130.52577,0 v 5.43857 h 5.43857 v -5.43857 z m -135.96434,16.31573 v 5.43857 5.43858 5.43856 h 5.43857 v -5.43856 h 5.43857 v -5.43858 h -5.43857 v -5.43857 z m 152.28005,5.43857 v 5.43858 h 5.43858 v -5.43858 z m -59.82431,5.43858 v 5.43856 h 5.43858 v -5.43856 z m -38.07,5.43856 v 5.43858 h 5.43857 v -5.43858 z m 59.8243,21.7543 h 5.43858 5.43856 5.43858 v 5.43858 5.43856 5.43858 h -5.43858 -5.43856 -5.43858 v -5.43858 -5.43856 z m -114.21004,5.43858 v 5.43856 5.43858 5.43857 5.43857 5.43858 5.43857 5.43857 h 5.43857 5.43857 5.43858 5.43857 5.43857 5.43858 5.43858 v -5.43857 -5.43857 -5.43858 -5.43857 -5.43857 -5.43858 -5.43856 h -5.43858 -5.43858 -5.43857 -5.43857 -5.43858 -5.43857 z m 119.64862,0 v 5.43856 h 5.43856 v -5.43856 z m -114.21005,5.43856 h 5.43857 5.43858 5.43857 5.43857 5.43858 v 5.43858 5.43857 5.43857 5.43858 5.43857 h -5.43858 -5.43857 -5.43857 -5.43858 -5.43857 v -5.43857 -5.43858 -5.43857 -5.43857 z m 5.43857,5.43858 v 5.43857 5.43857 5.43858 h 5.43858 5.43857 5.43857 v -5.43858 -5.43857 -5.43857 h -5.43857 -5.43857 z m 108.77148,5.43857 h 5.43856 5.43858 5.43858 v 5.43857 h -5.43858 -5.43858 -5.43856 z" /></g><text
       xml:space="preserve"
       style="font-style:normal;font-variant:normal;font-weight:normal;font-stretch:normal;font-size:16px;line-height:100%;font-family:Montserrat;-inkscape-font-specification:Montserrat;letter-spacing:0px;word-spacing:0px;fill:#000000;fill-opacity:1;stroke:none;stroke-width:1px;stroke-linecap:butt;stroke-linejoin:miter;stroke-opacity:1"
       x="403.26746"
       y="15.741337"
       id="text90869"><tspan
         sodipodi:role="line"
         id="tspan90867"
         x="403.26746"
         y="15.741337" /></text><use
       x="0"
       y="0"
       xlink:href="#g93226"
       id="use93228"
       transform="translate(528.00006)"
       width="100%"
       height="100%" /><use
       x="0"
       y="0"
       xlink:href="#g93226"
       id="use93230"
       transform="translate(528.00006,408.00003)"
       width="100%"
       height="100%" /><use
       x="0"
       y="0"
       xlink:href="#g93226"
       id="use93232"
       transform="translate(0,408.00003)"
       width="100%"
       height="100%" /></g></svg>
