<?xml version="1.0" encoding="UTF-8" standalone="no"?>
<svg
   height="64"
   width="64"
   fill="#000000"
   version="1.1"
   x="0px"
   y="0px"
   viewBox="0 0 64 64"
   enable-background="new 0 0 100 100"
   xml:space="preserve"
   id="svg16"
   sodipodi:docname="favicon.svg"
   inkscape:version="1.1 (1:1.1+202105261517+ce6663b3b7)"
   inkscape:export-filename="/home/jtebert/google-drive/Projects/Programming/html/robo-scavenge/static/favicon.png"
   inkscape:export-xdpi="768"
   inkscape:export-ydpi="768"
   xmlns:inkscape="http://www.inkscape.org/namespaces/inkscape"
   xmlns:sodipodi="http://sodipodi.sourceforge.net/DTD/sodipodi-0.dtd"
   xmlns="http://www.w3.org/2000/svg"
   xmlns:svg="http://www.w3.org/2000/svg"><defs
     id="defs20" /><sodipodi:namedview
     id="namedview18"
     pagecolor="#ffffff"
     bordercolor="#666666"
     borderopacity="1.0"
     inkscape:pageshadow="2"
     inkscape:pageopacity="0.0"
     inkscape:pagecheckerboard="0"
     showgrid="false"
     inkscape:snap-bbox="true"
     inkscape:snap-smooth-nodes="false"
     inkscape:bbox-paths="true"
     inkscape:bbox-nodes="true"
     fit-margin-top="0"
     fit-margin-left="0"
     fit-margin-right="0"
     fit-margin-bottom="0"
     inkscape:zoom="6.1235447"
     inkscape:cx="26.455265"
     inkscape:cy="18.453364"
     inkscape:window-width="1920"
     inkscape:window-height="999"
     inkscape:window-x="0"
     inkscape:window-y="402"
     inkscape:window-maximized="1"
     inkscape:current-layer="layer2"><inkscape:grid
       type="xygrid"
       id="grid896"
       empspacing="4"
       spacingx="2"
       spacingy="2"
       originx="-112"
       originy="-24" /></sodipodi:namedview><g
     display="none"
     id="g4"
     transform="translate(-112,-24)"><rect
       x="-627.87903"
       y="-45.154999"
       display="inline"
       fill="#000000"
       width="1286.936"
       height="912.422"
       id="rect2" /></g><g
     inkscape:groupmode="layer"
     id="layer1"
     inkscape:label="working"
     style="display:none"><rect
       style="fill:#00c9bb;fill-opacity:1;stroke:none;stroke-width:0.2;stroke-linecap:round;stroke-linejoin:round;stroke-miterlimit:4;stroke-dasharray:none;stroke-opacity:0"
       id="rect20887"
       width="12"
       height="20"
       x="50"
       y="28"
       rx="4"
       ry="4" /><path
       style="fill:#00c9bb;fill-opacity:1;fill-rule:evenodd;stroke:none;stroke-width:0.2;stroke-linecap:butt;stroke-linejoin:miter;stroke-miterlimit:4;stroke-dasharray:none;stroke-opacity:0"
       d="M 10,20 H 54 V 56 H 10 Z"
       id="path1337" /><path
       style="fill:#eeeeee;fill-opacity:1;fill-rule:evenodd;stroke:none;stroke-width:0.2;stroke-linecap:butt;stroke-linejoin:miter;stroke-miterlimit:4;stroke-dasharray:none;stroke-opacity:0"
       d="M 44,24 H 14 v 28 h 30 z"
       id="path1396" /><path
       style="fill:#00c9bb;fill-opacity:1;stroke:none;stroke-width:0.2;stroke-linecap:round;stroke-linejoin:round;stroke-miterlimit:4;stroke-dasharray:none;stroke-opacity:0"
       d="m 30,20 v -6 h 4 v 6 z"
       id="path1813" /><circle
       style="fill:#00c9bb;fill-opacity:1;stroke:none;stroke-width:0.2;stroke-linecap:round;stroke-linejoin:round;stroke-miterlimit:4;stroke-dasharray:none"
       id="path1983"
       cx="32"
       cy="10"
       r="6" /><circle
       style="fill:#00c9bb;fill-opacity:1;stroke:none;stroke-width:0.2;stroke-linecap:round;stroke-linejoin:round;stroke-miterlimit:4;stroke-dasharray:none;stroke-opacity:0"
       id="path2087"
       cx="35"
       cy="35"
       r="3" /><circle
       style="fill:#00c9bb;fill-opacity:1;stroke:none;stroke-width:0.2;stroke-linecap:round;stroke-linejoin:round;stroke-miterlimit:4;stroke-dasharray:none;stroke-opacity:0"
       id="path2087-6"
       cx="21"
       cy="35"
       r="3" /><path
       style="fill:#00c9bb;fill-opacity:1;stroke:none;stroke-width:0.2;stroke-linecap:round;stroke-linejoin:round;stroke-miterlimit:4;stroke-dasharray:none;stroke-opacity:0"
       id="path2427"
       sodipodi:type="arc"
       sodipodi:cx="28"
       sodipodi:cy="40"
       sodipodi:rx="7.9999995"
       sodipodi:ry="7.9999995"
       sodipodi:start="0"
       sodipodi:end="3.1415927"
       sodipodi:open="true"
       sodipodi:arc-type="chord"
       d="m 36,40 a 7.9999995,7.9999995 0 0 1 -4,6.928203 7.9999995,7.9999995 0 0 1 -8,0 A 7.9999995,7.9999995 0 0 1 20,40 Z" /><rect
       style="fill:#eeeeee;fill-opacity:1;stroke:none;stroke-width:0.2;stroke-linecap:round;stroke-linejoin:round;stroke-miterlimit:4;stroke-dasharray:none;stroke-opacity:0"
       id="rect24564"
       width="4"
       height="12"
       x="54"
       y="32" /><rect
       style="fill:#00c9bb;fill-opacity:1;stroke:none;stroke-width:0.2;stroke-linecap:round;stroke-linejoin:round;stroke-miterlimit:4;stroke-dasharray:none;stroke-opacity:0"
       id="rect20887-7"
       width="12"
       height="20"
       x="2"
       y="28"
       rx="4"
       ry="4" /><rect
       style="fill:#eeeeee;fill-opacity:1;stroke:none;stroke-width:0.2;stroke-linecap:round;stroke-linejoin:round;stroke-miterlimit:4;stroke-dasharray:none;stroke-opacity:0"
       id="rect24564-5"
       width="4"
       height="12"
       x="6"
       y="32" /></g><g
     inkscape:groupmode="layer"
     id="layer2"
     inkscape:label="output"
     style="display:inline"><path
       id="rect28613"
       style="fill:#00c9bb;stroke-width:0.2;stroke-linecap:round;stroke-linejoin:round;stroke-opacity:0"
       d="M 32 4 A 6 6 0 0 0 26 10 A 6 6 0 0 0 30 15.640625 L 30 20 L 10 20 L 10 28 L 6 28 C 3.784 28 2 29.784 2 32 L 2 44 C 2 46.216 3.784 48 6 48 L 10 48 L 10 56 L 54 56 L 54 48 L 58 48 C 60.216 48 62 46.216 62 44 L 62 32 C 62 29.784 60.216 28 58 28 L 54 28 L 54 20 L 34 20 L 34 15.640625 A 6 6 0 0 0 38 10 A 6 6 0 0 0 32 4 z M 14 24 L 44 24 L 44 52 L 14 52 L 14 24 z M 6 32 L 10 32 L 10 44 L 6 44 L 6 32 z M 21 32 A 3 3 0 0 0 18 35 A 3 3 0 0 0 21 38 A 3 3 0 0 0 24 35 A 3 3 0 0 0 21 32 z M 35 32 A 3 3 0 0 0 32 35 A 3 3 0 0 0 35 38 A 3 3 0 0 0 38 35 A 3 3 0 0 0 35 32 z M 54 32 L 58 32 L 58 44 L 54 44 L 54 32 z M 20 40 A 7.9999995 7.9999995 0 0 0 24 46.927734 A 7.9999995 7.9999995 0 0 0 32 46.927734 A 7.9999995 7.9999995 0 0 0 36 40 L 20 40 z " /></g></svg>
