<?xml version="1.0" standalone="no"?>
<!DOCTYPE svg PUBLIC "-//W3C//DTD SVG 20010904//EN"
 "http://www.w3.org/TR/2001/REC-SVG-20010904/DTD/svg10.dtd">
<svg version="1.0" xmlns="http://www.w3.org/2000/svg"
 width="512.000000pt" height="512.000000pt" viewBox="0 0 512.000000 512.000000"
 preserveAspectRatio="xMidYMid meet">
<metadata>
Created by potrace 1.14, written by Peter Selinger 2001-2017
</metadata>
<g transform="translate(0.000000,512.000000) scale(0.100000,-0.100000)"
fill="#000000" stroke="none">
<path d="M2443 4784 c-299 -77 -447 -409 -307 -686 35 -69 135 -167 207 -203
l57 -29 0 -173 0 -173 -800 0 -800 0 0 -320 0 -320 -177 -1 c-98 0 -191 -3
-208 -5 -84 -14 -181 -91 -225 -179 l-25 -50 0 -565 0 -565 25 -50 c42 -85
120 -152 202 -171 18 -4 36 -9 41 -10 4 -1 88 -2 187 -3 l180 -1 0 -320 0
-320 1760 0 1760 0 0 319 0 319 203 4 c200 3 203 3 256 32 85 44 136 103 165
192 15 47 17 108 14 595 l-3 544 -25 50 c-44 89 -140 165 -226 179 -16 2 -109
5 -206 5 l-178 1 0 320 0 320 -800 0 -800 0 0 175 c0 159 2 176 18 181 9 3 24
10 32 15 8 5 24 13 35 18 33 15 111 88 148 139 76 106 106 275 70 396 -76 255
-331 404 -580 340z m1077 -2704 l0 -1120 -1200 0 -1200 0 0 1120 0 1120 1200
0 1200 0 0 -1120z m-2720 0 l0 -480 -160 0 -160 0 0 480 0 480 160 0 160 0 0
-480z m3840 0 l0 -480 -160 0 -160 0 0 480 0 480 160 0 160 0 0 -480z"/>
<path d="M1620 2553 c-40 -13 -94 -46 -116 -71 -53 -58 -75 -151 -54 -228 15
-53 81 -131 126 -150 160 -67 333 34 340 199 1 32 -4 77 -12 100 -16 48 -69
108 -117 133 -31 16 -137 27 -167 17z"/>
<path d="M2713 2544 c-55 -20 -126 -98 -143 -158 -24 -87 2 -179 69 -239 48
-44 78 -57 143 -64 127 -14 248 90 254 217 1 30 -4 75 -12 100 -15 52 -73 116
-124 138 -49 21 -137 24 -187 6z"/>
<path d="M1604 1863 c8 -74 11 -87 31 -148 63 -187 218 -339 415 -405 83 -29
241 -35 332 -14 204 47 378 200 457 402 22 55 25 71 36 165 l7 57 -642 0 -642
0 6 -57z"/>
</g>
</svg>
